<svg width="104" height="104" viewBox="0 0 104 104" fill="none" xmlns="http://www.w3.org/2000/svg">
<rect width="104" height="104" fill="#7A003C"/>
<path d="M51.1158 88.1227C34.1756 83.0472 23.9096 66.5772 23.012 56.638C23.0029 56.5021 23 15 23 15H80.9075V56.3946C80.0098 66.4515 69.7525 83.0512 52.8219 88.1227L51.9997 88.3027L51.1152 88.1227H51.1158Z" fill="white"/>
<path d="M24.4427 16.3965C24.4427 16.3965 24.445 56.4404 24.4484 56.5164C25.3118 66.063 35.2075 81.8947 51.542 86.7891L51.7974 86.8645L51.8837 86.8897L51.9683 86.9165L52.0551 86.8897L52.1408 86.8645L52.3962 86.7891C68.7159 81.8987 78.6025 66.0098 79.4653 56.3947V16.3965H24.4427Z" fill="#495965"/>
<path d="M51.8929 32.2207H78.0232V56.3946C77.2713 64.707 68.3343 80.5513 51.9684 85.4537C35.6047 80.5513 26.6363 64.707 25.8855 56.3946V32.2207H52.0152H51.8924H51.8929Z" fill="#FDBF57"/>
<path d="M33.2014 30.0957L33.6014 29.8203C33.7899 29.6963 34.0259 29.5421 34.0591 29.0518C34.1048 28.3702 33.9716 27.7965 33.9111 27.5777L31.4856 27.7759L32.0181 26.9503L29.5737 24.7111L30.3142 24.4865L29.8863 22.8609L31.4501 23.186L31.745 22.3793L32.6569 23.3797L32.3918 20.7937L33.3511 21.5616L34.3819 19.6155L35.4126 21.5616L36.372 20.7937L36.1069 23.3797L37.0188 22.3793L37.3142 23.186L38.8769 22.8609L38.4489 24.4865L39.1912 24.7111L36.7462 26.9503L37.2776 27.7759L34.8567 27.5777C34.8013 27.7999 34.679 28.373 34.7058 29.0547C34.7247 29.5358 34.9652 29.6918 35.1584 29.8169L35.5646 30.0952H33.1997L33.2014 30.0957Z" fill="#FDBF57"/>
<path d="M68.211 30.0957L68.6161 29.8175C68.8087 29.6923 69.0487 29.5363 69.0681 29.0552C69.0949 28.3742 68.9727 27.8005 68.9161 27.5782L66.4952 27.7765L67.0271 26.9509L64.5828 24.7116L65.3255 24.4871L64.8953 22.8615L66.4586 23.1866L66.7551 22.3804L67.6671 23.3803L67.4025 20.7943L68.3619 21.5616L69.392 19.6155L70.4222 21.5616L71.3805 20.7937L71.1165 23.3803L72.029 22.3798L72.3244 23.1866L73.8882 22.8615L73.458 24.4871L74.2002 24.7116L71.7559 26.9509L72.2872 27.7765L69.864 27.5782C69.8035 27.7965 69.6697 28.3707 69.7155 29.0518C69.748 29.5426 69.9834 29.6975 70.1731 29.8215L70.5737 30.0963H68.2104L68.211 30.0957Z" fill="#FDBF57"/>
<path d="M42.8074 21.7246V30.3398H50.4936L50.5284 30.2678C50.5341 30.2564 51.0746 29.1708 52.0551 29.1622C52.0597 29.1622 52.0631 29.1622 52.0677 29.1622C53.0585 29.1622 53.5944 30.2558 53.599 30.2667L53.6338 30.3398H61.3212V21.7246H42.8074Z" fill="#7A003C"/>
<path d="M58.5437 20.4481C58.5266 20.4481 56.9347 20.5149 56.1337 20.199C54.5372 19.5687 53.2979 19.5482 52.4854 20.1138C52.3311 20.2213 52.1866 20.3424 52.0643 20.4927C51.9712 20.3784 51.8672 20.2772 51.7552 20.1875C51.7483 20.1824 51.7421 20.1773 51.7352 20.1721C51.7038 20.1476 51.6661 20.131 51.6335 20.1081C50.821 19.5493 49.5862 19.571 47.9944 20.199C47.1922 20.5144 45.6003 20.4492 45.578 20.4475L44.3364 20.4515V29.0525L44.4633 29.0542C44.5061 29.0542 45.0026 29.0599 45.5695 29.0599C46.2277 29.0599 46.9813 29.0525 47.2339 29.0239C47.5304 28.9896 47.979 28.8222 48.4989 28.6279C49.5143 28.2491 50.8484 27.7543 51.6335 28.06C51.7615 28.1097 51.878 28.176 51.9723 28.2725L52.0637 28.3657L52.1552 28.2725C52.1814 28.2457 52.218 28.2326 52.2477 28.2097C52.2683 28.1948 52.2894 28.1811 52.3129 28.1651C52.3677 28.1291 52.4191 28.0886 52.4814 28.0634C53.2642 27.748 54.6075 28.2468 55.628 28.6279C56.148 28.8222 56.5971 28.9896 56.8925 29.0239C57.3621 29.0776 59.5705 29.0553 59.6642 29.0548L59.7911 29.0531V20.4521L58.5432 20.4481H58.5437Z" fill="#FDBF57"/>
<path d="M52.0644 20.4938C51.9712 20.3795 51.8672 20.2784 51.7552 20.1887C51.7484 20.1836 51.7421 20.1784 51.7353 20.1733C51.7038 20.1487 51.6661 20.1321 51.6335 20.1093V28.0612C51.7615 28.1109 51.8781 28.1771 51.9724 28.2737L52.0638 28.3668L52.1552 28.2737C52.1815 28.2468 52.2181 28.2337 52.2478 28.2109C52.2683 28.196 52.2895 28.1823 52.3129 28.1663C52.3678 28.1303 52.4192 28.0897 52.4815 28.0646L52.4849 20.115C52.3306 20.2224 52.1861 20.3435 52.0638 20.4938H52.0644Z" fill="#7A003C"/>
<path d="M36.7417 63.906C36.7417 63.906 36.3526 64.0791 36.2983 64.4225C36.2983 64.4225 35.5424 63.8854 35.0213 64.7345C35.0213 64.7345 35.1647 63.3694 36.7417 63.906Z" fill="#7A003C"/>
<path d="M34.8985 67.3696C34.8985 67.3696 34.7202 67.7462 35.0653 68.305C35.0653 68.305 34.1094 68.6495 34.7425 69.8317C34.7425 69.8317 33.3546 68.5415 34.8985 67.3696Z" fill="#7A003C"/>
<path d="M36.8411 71.4927C36.8411 71.4927 36.8114 71.9053 37.3371 72.3109C37.3371 72.3109 36.568 72.9589 37.5913 73.8491C37.5913 73.8491 35.8229 73.116 36.8406 71.4927" fill="#7A003C"/>
<path d="M59.5106 68.6484C59.2546 68.7501 59.0358 68.9935 59.1358 69.6609C59.1358 69.6609 58.1947 68.7181 59.4854 67.9947L59.6237 67.9239C59.6237 67.9239 59.4803 68.3136 59.6957 68.5924C59.6957 68.5924 59.6151 68.6055 59.5106 68.6478" fill="#7A003C"/>
<path d="M67.2402 63.906C67.2402 63.906 67.6293 64.0791 67.6853 64.4225C67.6853 64.4225 68.4401 63.8854 68.9623 64.7345C68.9623 64.7345 68.8177 63.3694 67.2402 63.906Z" fill="#7A003C"/>
<path d="M69.084 67.3696C69.084 67.3696 69.2617 67.7462 68.9172 68.305C68.9172 68.305 69.8731 68.6495 69.2394 69.8317C69.2394 69.8317 70.6273 68.5415 69.084 67.3696Z" fill="#7A003C"/>
<path d="M67.1419 71.4927C67.1419 71.4927 67.1716 71.9053 66.6465 72.3109C66.6465 72.3109 67.4144 72.9589 66.3911 73.8491C66.3911 73.8491 68.1607 73.116 67.1419 71.4927Z" fill="#7A003C"/>
<path d="M50.3937 68.5078C49.2966 69.1986 47.4465 68.6204 47.4465 68.6204C47.4465 68.6204 47.4928 69.1152 45.8318 69.7917C43.3406 70.8059 40.7237 73.3611 44.1422 77.0802C44.1422 77.0802 42.7246 72.8457 44.9216 71.8561C44.9216 71.8561 46.8271 73.6605 49.5817 70.0808C50.1394 69.354 50.3937 68.5078 50.3937 68.5078Z" fill="#7A003C"/>
<path d="M44.2068 53.5754C44.1222 54.6788 43.9559 54.7245 42.9132 55.2181C42.9132 55.2181 42.5098 54.8467 42.3052 54.4645C41.6613 53.2669 42.7372 51.5013 42.7372 51.5013C41.5676 52.9006 39.8689 52.4304 39.8689 52.4304C39.9946 51.2356 41.6453 50.1517 41.6453 50.1517C40.1248 50.4237 38.925 49.6129 38.925 49.6129C39.3495 48.8399 40.9505 47.8576 40.9505 47.8576C39.4038 47.7599 38.3193 46.824 38.3193 46.824C38.7844 46.1864 40.5197 45.3504 40.5197 45.3504C39.69 44.8711 38.8741 43.4735 38.8741 43.4735C40.0523 42.8587 41.4179 42.9952 41.4179 42.9952C39.2272 41.4445 41.5933 37.2163 41.5933 37.2163C41.2585 43.5997 46.3409 41.9376 45.9443 45.187C45.6187 47.8611 42.6172 45.8978 42.6172 45.8978C42.0944 49.6209 44.2948 49.9723 44.2948 49.9723C44.2948 49.9723 44.1885 50.8705 44.1542 51.8139C44.1114 52.9646 44.2473 53.0441 44.2062 53.5749" fill="#7A003C"/>
<path d="M37.5159 62.858C44.5085 62.6918 45.7626 57.5562 45.7626 57.5562C45.0964 56.6049 44.977 56.1095 44.977 56.1095L44.8679 55.8295C44.3988 56.3192 42.6395 56.9551 42.6395 56.9551C42.6395 56.9551 41.6259 56.1009 41.3722 55.749C40.6905 54.8033 40.5842 54.1114 40.5842 54.1114C39.3986 54.14 38.313 53.1389 38.313 53.1389C38.2462 52.0859 38.693 51.2059 38.693 51.2059C37.8485 50.8317 36.9777 49.994 36.9777 49.994C37.5451 48.833 37.9159 48.4559 37.9159 48.4559C36.568 47.4451 36.5189 46.8269 36.5189 46.8269C36.8531 45.9504 38.0816 45.0882 38.0816 45.0882C37.5536 44.4042 37.0543 43.0655 37.0543 43.0655C38.0268 42.1222 38.9632 41.8399 38.9632 41.8399C38.8147 41.3062 38.8484 40.7954 38.8872 40.2337C38.8872 40.2337 30.8645 36.1867 29.9772 33.5646C29.9772 33.5646 29.6046 35.889 29.7555 37.3911C29.888 38.7242 32.0256 40.9051 37.192 44.2511C34.0203 43.7809 29.6806 42.1336 28.7327 40.4874C28.7327 40.4874 28.7179 42.8724 29.2652 44.286C29.7103 45.4327 31.9559 46.2521 37.0131 48.6564C34.5179 49.9866 30.0909 48.5119 28.8224 47.2737C28.8224 47.2737 29.5252 49.3552 30.3531 50.6334C30.8777 51.4402 32.9752 52.7944 37.8485 52.0938C36.0395 54.2731 32.5695 55.9164 30.2149 54.8839C30.2149 54.8839 30.4566 56.954 31.8861 57.5591C32.9438 58.0059 35.1733 58.2899 38.7261 55.6238C36.5829 60.7628 31.353 59.1926 31.353 59.1926C31.353 59.1926 32.5895 61.2405 33.9665 61.949C35.187 62.5775 37.7051 62.0735 41.7904 57.7739C41.7904 57.7739 41.535 61.5799 37.5159 62.8598" fill="#7A003C"/>
<path d="M46.5517 58.9904C46.5517 58.9904 46.554 58.9932 46.5551 58.995C46.7506 59.2635 47.9396 60.9239 48.3327 62.0558C48.3327 62.0558 45.6106 64.3305 46.098 66.8228C46.098 66.8228 45.1867 65.0156 45.8078 63.6397C45.8672 63.5094 46.1586 62.7512 46.1586 62.7512C46.1586 62.7512 43.8028 63.8385 42.2475 63.022C42.2475 63.022 43.9222 63.2129 45.7763 60.3737C46.4203 59.3875 46.5431 59.0858 46.5511 58.995V58.991L46.5517 58.9904Z" fill="#7A003C"/>
<path d="M57.4313 58.9904C57.4313 58.9904 57.429 58.9932 57.4279 58.995C57.2325 59.2635 56.0434 60.9239 55.6503 62.0558C55.6503 62.0558 58.3724 64.3305 57.885 66.8228C57.885 66.8228 58.7964 65.0156 58.1753 63.6397C58.1158 63.5094 57.8244 62.7512 57.8244 62.7512C57.8244 62.7512 60.1802 63.8385 61.7355 63.022C61.7355 63.022 60.0608 63.2129 58.2067 60.3737C57.5627 59.3875 57.4399 59.0858 57.4319 58.995V58.991L57.4313 58.9904Z" fill="#7A003C"/>
<path d="M38.3787 72.1612C38.1085 72.1612 37.8656 72.0738 37.6931 71.9155C37.3274 71.5813 37.1548 71.2127 37.1817 70.8202C37.2342 70.0231 38.1085 69.414 38.4821 69.1535L38.5781 69.0855C39.0112 68.7655 39.4838 68.3136 39.2786 67.973C39.2238 67.8822 39.0747 67.8096 38.881 67.7782C38.809 67.7662 38.7307 67.7599 38.6478 67.7599C38.2022 67.7599 37.7348 67.929 37.3982 68.213C37.1451 68.4261 36.8183 68.5438 36.4783 68.5438C36.2063 68.5438 35.9526 68.4684 35.7452 68.325C35.3293 68.0387 35.1916 67.5548 35.3755 67.0291C35.5487 66.5354 35.9555 66.2852 36.584 66.2852C36.824 66.2852 37.0543 66.32 37.2217 66.3463C37.3228 66.3612 37.4257 66.3749 37.4691 66.3749L37.7542 66.3817C37.8388 66.3817 37.8582 66.3686 37.8902 66.3172C37.8513 66.208 37.6599 66.0469 37.4994 65.9858C37.1554 65.8572 36.7634 65.5475 36.6634 65.1487C36.6166 64.9596 36.6154 64.6722 36.8726 64.3796C37.0617 64.1654 37.3177 64.0477 37.5936 64.0477C37.7091 64.0477 37.8245 64.0682 37.9365 64.1094C38.361 64.2654 38.6404 64.6705 38.6484 65.1413C38.6524 65.4298 38.8124 66.0652 39.1632 66.224C39.2946 66.2835 39.4375 66.3132 39.5895 66.3132C40.7859 66.3132 42.2184 64.4933 42.2321 64.4756L42.3464 64.3276L42.5212 64.3899C42.5275 64.3922 43.0789 64.5853 43.8194 64.5853C43.9668 64.5853 44.1211 64.5773 44.2799 64.559L44.6936 64.5088L44.5496 64.9007C44.5313 64.9516 44.0759 66.1463 41.8687 67.168C41.7053 67.2434 41.6676 67.3114 41.667 67.3234C41.6676 67.3342 41.6939 67.3771 41.7721 67.4154C41.8716 67.4354 41.9704 67.4411 42.0321 67.4411C42.1458 67.4411 42.2435 67.4228 42.3218 67.3862C42.5109 67.2954 42.7966 67.1754 43.0852 67.1754C43.2211 67.1754 43.3474 67.2022 43.4594 67.2554C43.6994 67.3691 43.8634 67.5953 43.9456 67.9285C44.0439 68.3181 43.9005 68.7072 43.5725 68.9432C43.3868 69.0775 43.1657 69.1484 42.9326 69.1484C42.7081 69.1484 42.4864 69.0821 42.2904 68.9564C42.2835 68.9524 42.0241 68.7627 41.9156 68.6741C41.8293 68.6038 41.6916 68.5673 41.5179 68.5673C41.2453 68.5673 40.9745 68.6524 40.8579 68.7021C40.4728 68.8712 40.1609 69.4929 39.9803 70.4511C39.822 71.2939 39.3866 71.8915 38.7855 72.0915C38.6518 72.1367 38.5141 72.1595 38.377 72.1595L38.3787 72.1612Z" fill="#7A003C"/>
<path d="M44.3468 68.709C44.6022 68.8107 44.8216 69.0546 44.7216 69.7214C44.7216 69.7214 45.6621 68.7792 44.3713 68.0564L44.2331 67.9856C44.2331 67.9856 44.3765 68.3747 44.1616 68.6535C44.1616 68.6535 44.2405 68.6667 44.3468 68.709Z" fill="#7A003C"/>
<path d="M53.5905 68.5078C54.687 69.1986 56.5371 68.6204 56.5371 68.6204C56.5371 68.6204 56.4903 69.1152 58.1518 69.7917C60.643 70.8059 63.26 73.3611 59.8397 77.0802C59.8397 77.0802 61.2596 72.8457 59.0603 71.8561C59.0603 71.8561 57.1548 73.6605 54.4007 70.0808C53.8419 69.354 53.5905 68.5078 53.5905 68.5078Z" fill="#7A003C"/>
<path d="M59.7763 53.5754C59.8608 54.6788 60.0271 54.7245 61.0699 55.2181C61.0699 55.2181 61.4715 54.8467 61.6778 54.4645C62.3206 53.2669 61.2458 51.5013 61.2458 51.5013C62.4155 52.9006 64.1147 52.4304 64.1147 52.4304C63.9885 51.2356 62.3383 50.1517 62.3383 50.1517C63.8593 50.4237 65.0564 49.6129 65.0564 49.6129C64.6324 48.8399 63.0308 47.8576 63.0308 47.8576C64.5787 47.7599 65.6632 46.824 65.6632 46.824C65.1981 46.1864 63.4605 45.3504 63.4605 45.3504C64.2924 44.8711 65.1084 43.4735 65.1084 43.4735C63.9296 42.8587 62.5634 42.9952 62.5634 42.9952C64.7558 41.4445 62.3886 37.2163 62.3886 37.2163C62.7234 43.5997 57.641 41.9376 58.0387 45.187C58.3638 47.8611 61.3653 45.8978 61.3653 45.8978C61.8881 49.6209 59.6877 49.9723 59.6877 49.9723C59.6877 49.9723 59.794 50.8705 59.8283 51.8139C59.8711 52.9646 59.7351 53.0446 59.7763 53.5754Z" fill="#7A003C"/>
<path d="M66.4671 62.858C59.4746 62.6918 58.2221 57.5562 58.2221 57.5562C58.8889 56.6049 59.006 56.1095 59.006 56.1095L59.1163 55.8295C59.5849 56.3192 61.3441 56.9551 61.3441 56.9551C61.3441 56.9551 62.3577 56.1009 62.6114 55.749C63.2931 54.8033 63.3994 54.1114 63.3994 54.1114C64.585 54.14 65.6706 53.1389 65.6706 53.1389C65.738 52.0859 65.2906 51.2059 65.2906 51.2059C66.1351 50.8317 67.0053 49.994 67.0053 49.994C66.4391 48.833 66.0683 48.4559 66.0683 48.4559C67.4162 47.4451 67.4653 46.8269 67.4653 46.8269C67.131 45.9504 65.9026 45.0882 65.9026 45.0882C66.4305 44.4042 66.9276 43.0655 66.9276 43.0655C65.9574 42.1222 65.0187 41.8399 65.0187 41.8399C65.1695 41.3062 65.1352 40.7954 65.0969 40.2337C65.0969 40.2337 73.1185 36.1867 74.0076 33.5646C74.0076 33.5646 74.3795 35.889 74.2298 37.3911C74.0961 38.7242 71.958 40.9051 66.7922 44.2511C69.9628 43.7809 74.3047 42.1336 75.2509 40.4874C75.2509 40.4874 75.2663 42.8724 74.7189 44.286C74.2738 45.4327 72.0283 46.2521 66.9699 48.6564C69.4663 49.9866 73.8933 48.5119 75.1606 47.2737C75.1606 47.2737 74.4601 49.3552 73.6299 50.6334C73.1065 51.4402 71.0084 52.7944 66.1357 52.0938C67.9441 54.2731 71.4147 55.9164 73.7693 54.8839C73.7693 54.8839 73.5259 56.954 72.098 57.5591C71.041 58.0059 68.8115 58.2899 65.2581 55.6238C67.4013 60.7628 72.6311 59.1926 72.6311 59.1926C72.6311 59.1926 71.3947 61.2405 70.0176 61.949C68.796 62.5775 66.2791 62.0735 62.1938 57.7739C62.1938 57.7739 62.4492 61.5799 66.4682 62.8598" fill="#7A003C"/>
<path d="M65.6049 72.1612C65.4678 72.1612 65.3306 72.1389 65.1969 72.0938C64.5958 71.8938 64.1599 71.2956 64.001 70.4528C63.8222 69.4952 63.5102 68.8741 63.1217 68.7027C62.9725 68.6381 62.7023 68.5684 62.4652 68.5684C62.2903 68.5684 62.152 68.6061 62.0652 68.6758C61.9595 68.7621 61.7041 68.9495 61.7041 68.9495C61.499 69.0815 61.2738 69.1489 61.047 69.1489C60.815 69.1489 60.595 69.0786 60.4105 68.9467C60.0819 68.7112 59.938 68.3216 60.034 67.9307C60.1179 67.5976 60.2814 67.3708 60.5213 67.2571C60.6328 67.2045 60.7579 67.1777 60.8933 67.1777C61.1841 67.1777 61.4704 67.2977 61.6601 67.3885C61.7372 67.4245 61.8326 67.4428 61.9446 67.4428C62.0886 67.4428 62.2126 67.4119 62.2469 67.4022C62.2863 67.3805 62.3126 67.3376 62.3132 67.3251C62.312 67.3119 62.2732 67.2445 62.112 67.1702C59.9048 66.1486 59.4494 64.9539 59.4312 64.903L59.2872 64.511L59.7014 64.5613C59.8563 64.5796 60.0088 64.587 60.1545 64.587C60.8847 64.587 61.4538 64.3939 61.4595 64.3922L61.6344 64.3299L61.7481 64.4773C61.7624 64.4962 63.1954 66.3155 64.3924 66.3155C64.5444 66.3149 64.6873 66.2852 64.8187 66.2263C65.1729 66.0669 65.3289 65.4424 65.3329 65.1436C65.3403 64.6733 65.6192 64.2688 66.0437 64.1122C66.1546 64.0705 66.27 64.0494 66.3865 64.0494C66.6619 64.0494 66.9185 64.1676 67.1087 64.3813C67.3813 64.691 67.3567 64.995 67.3179 65.1498C67.2127 65.5755 66.8014 65.8681 66.4814 65.9892C66.3214 66.0498 66.13 66.2103 66.0957 66.3137C66.1248 66.3732 66.1483 66.384 66.2288 66.384C66.2288 66.384 66.4682 66.376 66.4757 66.376C66.5802 66.376 66.6677 66.3623 66.7608 66.348C66.9345 66.3217 67.1642 66.2875 67.399 66.2875C68.027 66.2875 68.4338 66.5383 68.6063 67.0314C68.7909 67.5571 68.6521 68.0416 68.2361 68.3278C68.0293 68.4701 67.7756 68.5461 67.5042 68.5461C67.1642 68.5461 66.8379 68.4284 66.5854 68.2147C66.2483 67.9313 65.7809 67.7622 65.3352 67.7622C65.2518 67.7622 65.1735 67.7685 65.1015 67.7805C64.9072 67.8125 64.7587 67.885 64.7038 67.9753C64.497 68.3147 64.9695 68.7672 65.4026 69.0872L65.4957 69.1535C65.8706 69.4146 66.7471 70.0243 66.8002 70.8219C66.8271 71.2139 66.6551 71.5824 66.2888 71.9178C66.1163 72.0761 65.8729 72.1635 65.6037 72.1635L65.6049 72.1612Z" fill="#7A003C"/>
<path d="M51.9872 70.6322C52.1975 70.5305 52.4129 70.4922 52.6752 70.2368C52.6752 70.2368 54.4681 74.3365 58.5084 73.9114C58.5084 73.9114 58.2741 74.785 56.6731 74.8827C56.6731 74.8827 59.4089 76.1106 57.8382 77.3505C56.8074 78.163 55.9932 75.8843 55.9932 75.8843C55.9932 75.8843 55.8715 77.9739 54.0099 77.991C54.0099 77.991 56.7765 76.4237 53.8871 72.7526C54.1659 75.3284 53.2397 77.7253 51.9901 77.7253C50.7405 77.7253 49.816 75.3284 50.0948 72.7526C47.2054 76.4237 49.9714 77.991 49.9714 77.991C48.1104 77.9739 47.9893 75.8843 47.9893 75.8843C47.9893 75.8843 47.1745 78.163 46.1437 77.3505C44.5707 76.1112 47.3088 74.8827 47.3088 74.8827C45.7089 74.785 45.4747 73.9114 45.4747 73.9114C49.5149 74.3365 51.3067 70.2368 51.3067 70.2368C51.5707 70.4922 51.7781 70.5305 51.9872 70.6322Z" fill="#7A003C"/>
<path d="M53.9865 38.0082C54.0979 36.2855 55.6355 36.4438 55.7526 35.4285C55.9155 34.0126 54.1533 34.3154 54.1533 34.3154C54.1533 34.3154 54.9001 34.3217 55.0361 34.6697C55.3532 35.4765 53.9202 35.573 53.9202 35.573C52.1712 36.0118 51.5724 35.0091 50.9393 34.8959C50.3062 34.7828 50.1897 35.1862 50.0554 35.3308C49.9228 35.4765 47.2282 35.629 46.6666 36.2027C46.0226 36.8598 46.0917 37.6345 46.534 38.1236C46.534 38.1236 46.7803 37.2037 47.8013 37.1694C48.7875 37.1346 50.5142 38.4173 50.8959 39.1676C50.4639 39.1864 46.6077 39.4235 46.1089 39.0676C45.7918 38.8413 45.4318 38.3791 45.449 38.0728C45.449 38.0728 45.2421 39.0304 45.7078 39.3367C46.174 39.6429 46.3123 39.5904 46.5951 39.6058C46.8631 39.6218 50.5862 39.5138 50.9856 39.5098C50.8948 39.7806 50.9805 40.4806 50.1634 40.5463H47.0957C47.0957 40.5463 47.0048 41.2937 48.203 40.9674C48.4527 40.9 49.2583 40.6909 49.5012 41.1102C49.6629 41.3891 50.2108 42.3204 48.403 42.5798C48.403 42.5798 51.0502 42.7484 51.2593 40.5497C51.2593 40.5497 51.4667 42.201 51.9884 42.2079C52.582 42.2016 52.5815 40.4846 52.5815 40.4846C53.4934 42.8364 55.7846 42.9855 55.7846 42.9855C53.8579 41.7051 53.9688 38.2665 53.9853 38.0088L53.9865 38.0082ZM51.4873 36.5409L51.1199 36.5775C51.1747 36.6541 51.2079 36.7466 51.2079 36.8449C51.2079 37.1043 50.9908 37.3152 50.7222 37.3152C50.4537 37.3152 50.2365 37.1043 50.2365 36.8449L50.304 36.6244L49.1435 36.6861L51.3079 35.8713L51.4204 35.8278L51.4501 35.941L51.5787 36.4118L51.6107 36.5278L51.4873 36.5398V36.5409Z" fill="#7A003C"/>
<path d="M55.4544 44.4117C54.7933 44.3665 53.4305 44.0494 52.9763 43.4775C52.9763 43.4775 52.6638 43.9454 51.9935 44.1391C51.3187 43.9574 51.0576 43.49 51.0576 43.49C50.5114 44.0626 49.2818 44.366 48.551 44.4334C46.9545 48.4925 43.468 50.97 46.6711 56.4769C50.0108 62.2187 52.4295 63.0015 47.7636 66.9354C47.7636 66.9354 50.7462 67.7393 51.4347 65.2413C51.4347 65.2413 51.297 67.9542 51.9907 68.6804C52.6855 67.9542 52.5403 65.203 52.5403 65.203C53.2283 67.7016 56.2097 66.8971 56.2097 66.8971C51.5461 62.9632 53.9648 62.1804 57.3045 56.4386C60.5071 50.9322 57.0508 48.4702 55.4538 44.4105L55.4544 44.4117ZM56.3737 52.7252C56.3291 52.8389 56.268 52.9486 56.1943 53.0509C55.6909 53.748 54.8727 53.8411 54.2853 53.6251C53.9533 53.5017 53.8219 53.4154 53.6968 53.324L53.6619 53.2989L53.4568 53.1555V55.0262L53.6865 54.8456L53.9808 55.2347L54.0053 55.2684C54.1013 55.3901 54.1876 55.5164 54.3162 55.8387C54.5396 56.4072 54.4442 57.1985 53.7231 57.6859C53.6174 57.7579 53.5042 57.8156 53.3871 57.8602C53.2586 58.2385 53.0243 58.6527 52.2666 59.019L52.0564 59.1207L51.8467 59.019C51.081 58.6487 50.8491 58.2293 50.7256 57.8602C50.6079 57.8156 50.4948 57.7579 50.3897 57.6859C49.6703 57.1985 49.5737 56.4066 49.7966 55.8387C49.9246 55.5158 50.0137 55.3901 50.108 55.2684L50.1343 55.2347L50.4274 54.8399L50.6571 55.0233V53.1452C50.5508 53.2195 50.4371 53.2995 50.4371 53.2995L50.4017 53.3246C50.2765 53.416 50.1468 53.5023 49.8126 53.6257C49.2258 53.8417 48.4087 53.7491 47.9053 53.0515C47.8316 52.9492 47.7705 52.8395 47.7248 52.7252C47.3345 52.6018 46.9071 52.3744 46.5289 51.6413L46.4231 51.4373L46.5289 51.2334C46.9111 50.4928 47.3442 50.2677 47.7248 50.1489C47.7716 50.0346 47.8316 49.926 47.9053 49.8232C48.4087 49.1261 49.2258 49.033 49.8126 49.2501C50.0417 49.3341 50.1754 49.4015 50.2765 49.4649L50.1343 49.2735L50.108 49.2398C50.0137 49.1187 49.9246 48.9918 49.7966 48.6696C49.5732 48.1022 49.6703 47.3103 50.3897 46.8223C50.4954 46.7509 50.6085 46.6926 50.7268 46.648C50.8542 46.2698 51.089 45.8555 51.8472 45.4899L52.0569 45.3876L52.2672 45.4899C53.0329 45.8601 53.2648 46.2784 53.3883 46.648C53.506 46.6926 53.6179 46.7509 53.7237 46.8223C54.4447 47.3108 54.5396 48.1022 54.3167 48.6696C54.1882 48.9924 54.1019 49.1193 54.0059 49.2398L53.9814 49.2735L53.8511 49.4478C53.9493 49.3895 54.0773 49.3272 54.2853 49.2507C54.8721 49.0341 55.6903 49.1267 56.1943 49.8238C56.268 49.9266 56.3291 50.0357 56.3737 50.15C56.7651 50.2734 57.1919 50.5009 57.5713 51.2339L57.6764 51.4379L57.5713 51.6419C57.1885 52.383 56.756 52.607 56.3737 52.7264V52.7252Z" fill="#7A003C"/>
<path d="M56.4274 51.3882C56.4228 51.3819 56.004 50.822 55.4064 50.9625C55.4846 50.7957 55.5121 50.5706 55.3492 50.346C55.1081 50.0118 54.7476 50.0426 54.591 50.1055L54.4956 50.1443L54.559 50.2226C54.559 50.2226 54.6321 50.3134 54.6436 50.4403C54.6556 50.562 54.643 50.7437 54.4122 50.9128C54.2967 50.9979 53.9888 51.0099 53.8774 51.0077H52.5049V49.0107C52.5026 48.905 52.5152 48.605 52.6032 48.4942C52.778 48.2708 52.966 48.2593 53.0928 48.2702C53.2214 48.2816 53.3151 48.3513 53.3163 48.3513L53.3974 48.4153L53.4374 48.321C53.5031 48.1696 53.5339 47.8205 53.1894 47.5874C52.9569 47.4297 52.7255 47.4565 52.5518 47.5314C52.6975 46.9532 52.1186 46.5469 52.1129 46.5423L52.0912 46.5286H52.0415L52.0215 46.5423C52.0135 46.5469 51.4358 46.9532 51.581 47.5314C51.4084 47.4565 51.177 47.4297 50.9445 47.5874C50.5994 47.8205 50.6314 48.1702 50.6959 48.321L50.7359 48.4142L50.817 48.3525C50.817 48.3525 50.9113 48.2816 51.0416 48.2702C51.1673 48.2593 51.3547 48.2708 51.5301 48.4942C51.6147 48.6016 51.6284 48.8804 51.6255 48.9913L51.6238 48.9964V51.0082H50.1868C50.0777 51.0105 49.7686 50.9979 49.6543 50.9134C49.4229 50.7443 49.4109 50.5626 49.4223 50.4409C49.4349 50.314 49.5063 50.2243 49.5063 50.2243L49.572 50.1449L49.476 50.106C49.32 50.0432 48.9589 50.0123 48.7178 50.3466C48.555 50.5711 48.5807 50.7962 48.6595 50.9631C48.0624 50.8225 47.6425 51.3825 47.639 51.3888L47.6242 51.4099V51.4579L47.639 51.4779C47.643 51.4842 48.0624 52.0441 48.6595 51.9036C48.5807 52.0704 48.5544 52.2955 48.7178 52.5201C48.9589 52.8538 49.3195 52.8235 49.476 52.7607L49.5714 52.7218L49.508 52.6435C49.508 52.6435 49.4349 52.5521 49.4223 52.4258C49.4109 52.3041 49.4229 52.1224 49.6543 51.9527C49.7651 51.8716 50.0525 51.8584 50.1674 51.859L50.1725 51.8613H51.6238V55.4753L51.6255 55.4913C51.6284 55.6027 51.6153 55.8809 51.5301 55.9889C51.3547 56.2123 51.1673 56.2238 51.0416 56.2129C50.9113 56.2021 50.8176 56.1318 50.8176 56.1318L50.7359 56.0678L50.6959 56.1615C50.6314 56.314 50.5994 56.6626 50.9445 56.8969C51.177 57.054 51.4084 57.0271 51.581 56.9523C51.4358 57.5305 52.0129 57.9368 52.0215 57.9413L52.0421 57.9551H52.0918L52.1124 57.9413C52.1181 57.9368 52.6969 57.5311 52.5512 56.9523C52.7243 57.0271 52.9557 57.054 53.1888 56.8969C53.5334 56.6626 53.502 56.314 53.4368 56.1615L53.3974 56.0695L53.3157 56.1324C53.3157 56.1324 53.2214 56.2032 53.0923 56.2135C52.966 56.2243 52.7775 56.2129 52.602 55.9895C52.5152 55.8787 52.5026 55.5787 52.5043 55.4718V51.8619H53.8796L53.8985 51.8602C54.0139 51.8584 54.3002 51.8716 54.4116 51.9533C54.6424 52.1224 54.655 52.3047 54.643 52.4264C54.631 52.5527 54.559 52.6429 54.559 52.6429L54.4933 52.7224L54.5899 52.7612C54.7458 52.8241 55.107 52.8544 55.3481 52.5207C55.5109 52.2961 55.4835 52.071 55.4052 51.9042C56.0034 52.0447 56.4223 51.4848 56.4263 51.4785L56.4411 51.4568V51.4093L56.4263 51.3893L56.4274 51.3882Z" fill="#7A003C"/>
</svg>
