<?xml version="1.0" encoding="utf-8"?>
<!-- Generator: Adobe Illustrator 28.3.0, SVG Export Plug-In . SVG Version: 6.00 Build 0)  -->
<svg version="1.1" id="COL" xmlns="http://www.w3.org/2000/svg" xmlns:xlink="http://www.w3.org/1999/xlink" x="0px" y="0px"
	 viewBox="0 0 1000 528.08" style="enable-background:new 0 0 1000 528.08;" xml:space="preserve">
<style type="text/css">
	.st0{fill:#495865;}
	.st1{fill:#FFFFFF;}
	.st2{fill:#FEC059;}
	.st3{fill:#7A003C;}
</style>
<g>
	<path class="st0" d="M190.86,163.21c-1.88-1.78-5.04-1.72-7.12-1.68l-0.77,0.01c-3.17,0-6.17-0.22-8.16-2.89
		c-2.4-3.14-2.37-13.01-2.36-17.22l0-0.96V31c0-0.91-0.04-2.01-0.07-3.18c-0.14-4.7-0.37-12.58,1.71-15.3
		c1.29-1.78,4.76-1.65,7.54-1.54c0.65,0.03,1.26,0.05,1.82,0.05c6.84,0,7.58-4.28,7.58-6.11c0-1.62-0.49-2.88-1.45-3.73
		c-1.62-1.43-3.98-1.23-5.88-1.07c-0.54,0.04-1.05,0.09-1.47,0.09h-27.21c-2.81,0-6.32,0-8.21,4.67l-48.7,121.55
		c-7.84-21.35-42.96-117.05-42.94-117c-0.21-0.65-0.4-1.29-0.59-1.9c-1.07-3.6-2.17-7.31-7.4-7.31H18.83
		c-0.43,0-0.93-0.04-1.48-0.09c-1.9-0.16-4.26-0.36-5.88,1.07c-0.96,0.85-1.45,2.11-1.45,3.73c0,1.83,0.74,6.11,7.58,6.11
		c5.52,0,8.99,0.29,10.42,1.76c1.52,1.58,1.56,5.15,1.07,12.08l-7.58,117.71c-0.77,14.09-1.64,18.96-13.45,18.96
		c-7.02,0-8.07,3.22-8.07,5.14c0,2.22,0.97,4.88,5.62,4.88c3.57,0,7.25-0.23,10.81-0.45c3.6-0.22,7.31-0.45,10.96-0.45
		c3.61,0,7.31,0.23,10.89,0.44c3.63,0.22,7.39,0.45,11.11,0.45c2.12,0,7.09,0,7.09-4.88c0-1.32-0.47-2.46-1.35-3.31
		c-1.94-1.87-5.27-1.85-7.48-1.83h-0.46c-4.88,0-8.37-1.15-10.69-3.52c-4.57-4.69-4.42-13.87-3.74-25.38l6.82-105.01
		c7.77,21.8,46.82,131.44,46.78,131.31l0.06,0.22c0.55,2.18,1.58,6.23,5.27,6.23c3.13,0,4.25-3.14,4.99-5.22l0.28-0.76l52.68-134.69
		v115.76l0.01,1.44c0.04,4.63,0.11,13.25-3.14,16.24c-2.31,2.12-7.06,3.38-10.32,3.38l-0.76-0.01c-2.09-0.04-5.25-0.11-7.13,1.68
		c-0.93,0.88-1.4,2.05-1.4,3.47c0,2.22,1.1,4.88,6.36,4.88c4.77,0,9.69-0.23,14.44-0.45c4.82-0.22,9.8-0.45,14.71-0.45
		c3.88,0,7.85,0.23,11.68,0.45c3.87,0.22,7.87,0.45,11.83,0.45c5.25,0,6.36-2.65,6.36-4.88
		C192.26,165.27,191.79,164.09,190.86,163.21"/>
	<path class="st0" d="M295.08,81.76c-4.18,0-7-4.83-10.57-10.94c-5.07-8.68-11.38-19.48-23.21-19.48c-8.89,0-18.9,5.47-24.87,10.89
		c-11.28,10.52-18.03,26.83-18.03,43.6c0,26.6,17.78,55.32,46.51,55.32c11.24,0,21.07-4.03,28.4-11.64l0.47-0.55
		c1.53-1.81,2.93-3.3,4.65-3.3c1.94,0,3.52,1.73,3.52,3.87c0,1.53-0.86,4.34-8.27,11.16c-10.63,9.23-23.96,14.1-38.57,14.1
		c-32.14,0-59.29-29.04-59.29-63.42c0-37.03,31.4-68.31,68.57-68.31c9.59,0,23.93,2.96,32.76,9.46c3.39,2.52,3.09,7.29,2.84,11.13
		c-0.06,0.86-0.11,1.67-0.11,2.36c0,0.28,0.04,0.81,0.07,1.44c0.32,5.04,0.45,10.62-1.95,13.09
		C297.22,81.33,296.21,81.76,295.08,81.76"/>
	<path class="st0" d="M497.94,163.21c-1.88-1.78-5.04-1.72-7.12-1.68l-0.76,0.01c-3.17,0-6.18-0.22-8.16-2.89
		c-2.4-3.14-2.37-13.01-2.36-17.22l0-0.96V31c0-0.91-0.03-2.01-0.07-3.18c-0.14-4.7-0.37-12.58,1.71-15.3
		c1.3-1.78,4.76-1.65,7.54-1.54c0.65,0.03,1.26,0.05,1.82,0.05c6.84,0,7.57-4.28,7.57-6.11c0-1.62-0.48-2.88-1.45-3.73
		c-1.61-1.43-3.98-1.23-5.88-1.07c-0.54,0.04-1.05,0.09-1.47,0.09h-27.21c-2.82,0-6.32,0-8.22,4.67l-48.7,121.55
		c-7.84-21.35-42.95-117.05-42.94-117c-0.21-0.65-0.4-1.29-0.59-1.9c-1.06-3.6-2.17-7.31-7.4-7.31h-28.36
		c-0.42,0-0.93-0.04-1.47-0.09c-1.9-0.16-4.26-0.36-5.88,1.07c-0.96,0.85-1.45,2.11-1.45,3.73c0,1.83,0.74,6.11,7.58,6.11
		c5.52,0,9,0.29,10.42,1.76c1.53,1.58,1.56,5.15,1.08,12.08l-7.58,117.71c-0.77,14.09-1.64,18.96-13.45,18.96
		c-7.02,0-8.07,3.22-8.07,5.14c0,2.22,0.97,4.88,5.62,4.88c3.57,0,7.25-0.23,10.81-0.45c3.6-0.22,7.31-0.45,10.96-0.45
		c3.61,0,7.31,0.23,10.89,0.44c3.63,0.22,7.39,0.45,11.11,0.45c2.12,0,7.09,0,7.09-4.88c0-1.32-0.47-2.46-1.35-3.31
		c-1.94-1.87-5.27-1.85-7.48-1.83h-0.46c-4.88,0-8.37-1.15-10.68-3.52c-4.57-4.69-4.42-13.87-3.74-25.38l6.82-105.01
		c7.77,21.8,46.82,131.44,46.78,131.31l0.06,0.22c0.55,2.18,1.58,6.23,5.27,6.23c3.13,0,4.25-3.14,4.99-5.22l0.28-0.76l52.68-134.69
		v115.76l0.01,1.45c0.04,4.63,0.11,13.25-3.14,16.24c-2.31,2.12-7.06,3.38-10.32,3.38l-0.77-0.01c-2.09-0.04-5.24-0.11-7.12,1.68
		c-0.93,0.88-1.4,2.05-1.4,3.47c0,2.22,1.1,4.88,6.35,4.88c4.77,0,9.68-0.23,14.44-0.45c4.82-0.22,9.8-0.45,14.71-0.45
		c3.88,0,7.85,0.23,11.68,0.45c3.87,0.22,7.87,0.45,11.83,0.45c5.25,0,6.36-2.65,6.36-4.88
		C499.34,165.27,498.87,164.09,497.94,163.21"/>
	<path class="st0" d="M566.86,101.19c8.69-4.37,8.69-4.37,8.69-14.02V74.99c0-14.46-1.01-23.25-14.92-23.25
		c-13.41,0-21.61,6.44-28.3,22.22l-0.55,1.28c-1.58,3.7-3.22,7.53-7.46,9.54c-2.63,1.43-8.24,3.77-11.74,3.77
		c-3.38,0-5.03-1.63-5.03-4.98c0-7.8,6.07-16.11,11.27-20.85c12.55-12.1,30.78-19.63,47.53-19.63c11.22,0,19.54,2.62,24.75,7.78
		c5.9,5.28,5.78,12.04,5.66,18.57l-0.03,2.78v65.31v0.48c0,4.45-0.02,14.86,3.88,18.63c0.95,0.92,2.07,1.37,3.43,1.37
		c3.29,0,5.56-2.33,7.37-4.21c1.41-1.45,2.62-2.71,4.23-2.71c1.95,0,3.52,1.74,3.52,3.87c0,3.63-4.22,7.48-6.49,9.55l-0.23,0.21
		c-5.32,3.99-12.2,8.44-19.48,8.44c-9.36,0-13.11-8.99-15.58-14.94c-0.72-1.72-1.7-4.07-2.25-4.45l0.32,0.08l0.38-0.06
		c-0.46,0.2-2.03,1.56-3.41,2.76c-6.83,5.93-21.05,18.27-38.81,18.27c-12.51,0-25.8-8.22-25.8-23.45
		c0-19.88,22.47-31.58,37.33-39.31l1.69-0.88L566.86,101.19 M549.78,119.6c-10.08,5.5-19.4,12.29-19.4,24.57
		c0,10.83,8.73,14.67,16.22,14.67c8.15,0,16.71-3.94,22.9-10.52c5.8-6.44,6.05-10.68,6.05-19.64v-16.6c0-0.19,0.02-0.45,0.04-0.8
		c0.23-4.2-0.22-5.18-0.44-5.4l0.3,0.11l0.05,0c-0.22,0.03-0.86,0.35-1.2,0.51c-0.39,0.19-0.76,0.37-1.12,0.5l0.24-0.11
		L549.78,119.6"/>
	<path class="st0" d="M627.6,136.11l0.04-0.4c0.26-2.33,0.8-7.18,5.01-7.18c4.58,0,5.64,5.34,6.86,11.52
		c2.21,11.17,5.23,26.47,27.04,26.47c14.47,0,29.85-8.94,29.85-25.52c0-15.31-12.24-20.97-23.72-25.07l-2.33-0.8
		c-16.19-5.55-38.38-13.14-38.38-35.7c0-10.48,4.97-19.85,14.37-27.08c8.32-6.28,18.65-9.32,31.59-9.32c6.73,0,20.7,1.82,27.28,4.67
		c4.57,2.32,4.22,7.37,3.96,11.42c-0.06,0.92-0.13,1.79-0.13,2.57c0,0.19,0.05,0.71,0.09,1.26c0.42,4.94,0.67,10.4-1.61,12.8
		c-0.73,0.77-1.69,1.18-2.75,1.18c-3.24,0-4.58-3.3-6.27-7.48c-3.17-7.84-7.51-18.59-25.22-18.59c-9.03,0-22.09,6.72-22.09,18.87
		c0,13.74,12.59,18.34,27.16,23.67c17.51,6.41,37.36,13.67,37.36,39.28c0,29.06-29.65,42.13-50.7,42.13
		c-8.83,0-24.47-3.42-33.71-8.52c-4.58-2.15-4.53-6.2-4.49-10.11l0.01-1.31L627.6,136.11"/>
	<path class="st0" d="M793.55,154.97c0-1.7-1.51-3.6-3.51-3.6c-1.3,0-2.43,0.97-4.5,2.73c-3.27,2.79-8.2,7-14.07,7
		c-3.15,0-5.64-0.93-7.62-2.85c-5.89-5.7-5.88-18.79-5.88-27.45v-0.58V59.87c0-2.72,0.48-3.74,0.89-4.12
		c0.65-0.6,2.22-0.52,4.22-0.43c0.82,0.04,1.74,0.08,2.72,0.08h14.44c1.05,0,1.98,0.05,2.8,0.09c2.3,0.11,4.11,0.2,5.44-1.01
		c1.29-1.19,1.47-3.14,1.47-5.07c0-2.04,0-5.45-4.03-5.45l-25.39,0c-2.06-0.16-2.55-0.33-2.55-3.9v-19.7c0-4.12-2.05-4.99-3.77-4.99
		c-2.52,0-3.69,2.53-4.14,3.5c-5.76,12.96-12.84,19.59-24.02,27.38l-0.59,0.47c-1.3,1.04-3.09,2.45-3.09,4.85
		c0,1.04,0.4,1.94,1.16,2.62c1.77,1.59,4.94,1.48,7.77,1.25c0.32-0.03,0.65-0.05,0.77-0.05c0.6,0,1.16-0.01,1.64-0.02
		c1.07-0.03,2.41-0.05,2.65,0.17c0.11,0.1,0.45,0.63,0.45,3.2v71.47l-0.03,3.94c-0.12,10.75-0.24,22.94,6.02,31.49
		c4.36,5.74,11.81,9.16,19.92,9.16c9.02,0,17.94-3.85,25.12-10.83C789.39,162.76,793.55,158.68,793.55,154.97"/>
	<path class="st0" d="M901.44,141.28c-1.6,0-2.95,1.29-5.4,3.65c-5.22,5.02-14.95,14.37-32.77,14.37
		c-31.72,0-48.31-28.32-48.31-56.29c0-3.38,0.37-5.32,1.18-6.09c0.91-0.88,3.08-0.87,6.37-0.85l1.31,0h78.13
		c1.45,0,4.81-0.63,4.81-6.41c0-9.47-3.94-21.59-9.36-28.84c-8.61-11.3-22.64-17.78-38.51-17.78c-17.97,0-34.43,6.55-47.6,18.95
		c-13.08,12.25-18.91,26.86-18.91,47.39c0,36.69,26.49,65.43,60.32,65.43c16.92,0,29.85-4.93,41.93-15.99l0.18-0.17
		c7.2-6.62,10.41-10.79,10.41-13.51C905.21,142.98,903.56,141.28,901.44,141.28 M823.2,69.04c7.41-11.09,19.41-17.71,32.08-17.71
		c6.39,0,15.24,1.39,21.13,7.96c3.82,4.39,6.3,10.35,6.3,15.19c0,5.13-2.54,8.04-8.27,9.43c-7.25,1.87-21.58,2.15-29.47,2.15h-20.89
		c-0.39,0-0.82,0.02-1.27,0.03c-1.76,0.06-4.41,0.15-5.38-0.75c-0.18-0.17-0.42-0.47-0.42-1.2
		C817.02,80.32,820.78,72.21,823.2,69.04"/>
	<path class="st0" d="M983.59,44.41c-13.76,0-23,12.19-27.96,18.74c-0.7,0.93-1.47,1.94-2.07,2.65c-0.05-0.57-0.06-1.39,0-2.61
		c0.01-0.31,0.03-0.55,0.03-0.75V48.84l0-0.4c0.01-1.32,0.04-3.13-1.21-4.36c-0.49-0.47-1.37-1.04-2.82-1.04
		c-2.45,0-4.01,1.89-5.15,3.27c-0.27,0.32-0.51,0.62-0.84,0.98c-4.06,5.17-14.86,12.03-20.61,13.82c-0.31,0.11-0.67,0.22-1.04,0.34
		c-2.25,0.7-6.01,1.89-6.01,5.91c0,2.35,1.89,3.87,4.8,3.87h3.35c3.01,0,5.35,0.6,6.21,1.67c2.19,2.35,2.15,12.38,2.14,15.68l0,0.91
		v51.99c0,1.56,0.04,3.06,0.08,4.52c0.27,10.44-0.05,15.51-10.15,16.51c-0.39,0.04-0.85,0.06-1.32,0.08
		c-2.6,0.13-7.43,0.36-7.43,5.47c0,2.79,1.99,4.45,5.32,4.45c4.01,0,8.15-0.21,12.15-0.41c4.04-0.2,8.23-0.41,12.33-0.41
		c3.75,0,7.57,0.19,11.62,0.4c4.11,0.21,8.36,0.42,12.6,0.42c2.97,0,4.81-1.81,4.81-4.73c0-4.65-4.95-5-7.6-5.18
		c-0.41-0.03-0.81-0.05-1.16-0.09c-10.09-1.01-10.41-6.07-10.14-16.51c0.04-1.45,0.08-2.96,0.08-4.52V97.79v-1.3
		c-0.01-10.25-0.02-17.03,5.61-25.6c2.75-3.7,6.91-9.3,11.76-9.3c2.47,0,3.89,1.61,6.01,4.25c2.25,2.8,5.06,6.29,10.49,6.29
		c7.39,0,12.54-5.24,12.54-12.75C1000,50.84,992.95,44.41,983.59,44.41"/>
	<path class="st0" d="M86.56,234.72l0-0.86c0.01-3.6,0.03-12.03-1.48-14.74c-1.37-2.71-4.17-2.92-7.68-2.92h-0.25
		c-1.23,0.01-3.29,0.02-4.61-1.24c-0.48-0.46-1.05-1.28-1.05-2.58c0-1.06,0.38-1.99,1.1-2.68c0.88-0.85,2.23-1.3,3.89-1.3
		c2.37,0,4.76,0.18,7.06,0.35c2.23,0.17,4.54,0.34,6.78,0.34c1.92,0,3.83-0.17,5.85-0.34c2-0.18,4.08-0.35,6.16-0.35
		c4.5,0,4.99,2.67,4.99,3.83c0,2.65-2.25,3.99-6.68,3.99c-5.76,0-6.05,2.76-6.17,9.58c-0.02,0.88-0.03,1.78-0.07,2.72l0,51.66
		c0,10.27,0,19.14-8.99,27.58c-6.72,6.23-16.57,9.26-30.12,9.26c-7.32,0-20.91-1.04-29.71-8c-9.77-7.22-9.76-17.23-9.75-27.83v-1.01
		v-52.06l0.01-1.97c0.02-4.41,0.04-7.33-1.22-8.55c-0.98-0.95-3.15-1.37-7.03-1.37c-3.72,0-5.6-1.29-5.6-3.83
		c0-1.22,0.37-2.19,1.09-2.89c0.76-0.74,1.84-1.1,3.28-1.1c2.97,0,5.9,0.18,8.72,0.35c2.78,0.17,5.65,0.35,8.53,0.35
		c2.88,0,5.83-0.18,8.68-0.35c2.9-0.17,5.89-0.35,8.86-0.35c2.69,0,4.37,1.53,4.37,3.99c0,2.54-1.94,3.83-5.76,3.83
		c-3.88,0-6.05,0.42-7.02,1.37c-1.25,1.22-1.24,4.14-1.22,8.55l0,1.97v46.75v1.64c-0.02,7.07-0.05,17.76,3.01,23.06
		c5.18,9.19,19.2,9.91,23.37,9.91c5.91,0,16.83-1.09,23.6-8.39c5.09-5.64,5.09-12.42,5.09-20.27v-0.64V234.72z"/>
	<path class="st0" d="M188,308.33l-0.66-0.05c-5.34-0.53-5.56-2.78-5.39-9.19c0.02-0.88,0.04-1.78,0.04-2.72v-26.21l0-1.33
		c0.02-7.71,0.03-15.68-4.91-22.55c-4.61-6.34-11.19-9.55-19.57-9.55c-10.49,0-17.99,6.88-22.47,11c-0.33,0.3-0.68,0.63-1.03,0.94
		v-7.59l0-0.27c0.01-0.97,0.02-2.29-0.94-3.24c-0.39-0.38-1.08-0.83-2.19-0.83c-1.82,0-2.92,1.34-3.65,2.22l-0.51,0.6
		c-2.27,2.91-8.61,6.98-11.94,8.02l-0.59,0.19c-1.43,0.45-4.09,1.29-4.09,4.21c0,1.81,1.45,3.02,3.6,3.02h2
		c1.87,0,2.86,0.4,3.16,0.76c0.51,0.55,1.12,2.55,1.09,8.92v0.55v31.16c0,0.94,0.02,1.85,0.04,2.72c0.17,6.4-0.05,8.64-5.39,9.18
		l-0.76,0.05c-1.53,0.07-5.13,0.25-5.13,3.95c0,1.54,1.02,3.34,3.91,3.34c2.44,0,4.92-0.17,7.33-0.35c2.39-0.17,4.86-0.35,7.26-0.35
		c2.19,0,4.45,0.16,6.84,0.34c2.47,0.18,5.03,0.36,7.61,0.36c2.19,0,3.6-1.38,3.6-3.51c0-3.42-3.66-3.67-5.22-3.78l-0.67-0.05
		c-5.35-0.53-5.56-2.78-5.4-9.18c0.02-0.87,0.04-1.78,0.04-2.72v-27.84c0-6.53,0.41-9.64,4.5-14.2c3.77-4.22,8.71-6.55,13.92-6.55
		c5.6,0,10.44,2.48,12.97,6.64c2.52,4.08,2.52,10.44,2.52,15.55v26.38c0,0.94,0.02,1.85,0.04,2.72c0.16,6.41-0.05,8.66-5.4,9.19
		l-0.75,0.05c-1.54,0.07-5.14,0.25-5.14,3.95c0,1.54,1.02,3.34,3.91,3.34c2.44,0,4.93-0.18,7.34-0.35c2.39-0.17,4.86-0.35,7.26-0.35
		c2.19,0,4.45,0.16,6.84,0.34c2.47,0.18,5.03,0.36,7.6,0.36c2.19,0,3.6-1.38,3.6-3.51C193.22,308.68,189.56,308.43,188,308.33"/>
	<path class="st0" d="M210.57,216.05c0-5.6,3.82-9.98,8.68-9.98c5.15,0,8.22,4.9,8.22,9.65c0,5.97-3.43,9.97-8.53,9.97
		C214.09,225.69,210.57,221.64,210.57,216.05 M226.06,296.37c0,0.94-0.02,1.85-0.04,2.72c-0.17,6.4,0.05,8.64,5.39,9.18l0.67,0.05
		c1.56,0.11,5.22,0.36,5.22,3.78c0,2.13-1.41,3.51-3.6,3.51c-2.57,0-5.13-0.18-7.6-0.36c-2.39-0.17-4.65-0.33-6.84-0.33
		c-2.4,0-4.87,0.18-7.26,0.35c-2.41,0.17-4.9,0.35-7.33,0.35c-2.89,0-3.91-1.8-3.91-3.35c0-3.7,3.6-3.88,5.14-3.95l0.75-0.05
		c5.34-0.54,5.55-2.78,5.39-9.18c-0.02-0.87-0.04-1.78-0.04-2.72v-31.16v-0.55c0.03-6.38-0.58-8.37-1.09-8.92
		c-0.3-0.36-1.29-0.76-3.15-0.76h-2c-2.15,0-3.6-1.22-3.6-3.02c0-2.92,2.66-3.76,4.09-4.21l0.59-0.19c3.33-1.04,9.66-5.1,11.94-8.02
		l0.51-0.6c0.73-0.89,1.83-2.22,3.64-2.22c1.11,0,1.81,0.45,2.19,0.83c0.97,0.95,0.95,2.27,0.94,3.24l0,0.27V296.37z"/>
	<path class="st0" d="M319.41,239.44c-0.79-0.73-1.75-0.68-2.45-0.65l-0.49,0.02h-22.64c-1.01,0-4.07,0-4.07,3.16
		c0,3.49,4.46,3.49,5.92,3.49c1,0,4.26,0.2,4.26,2.79c0,1.3-0.88,3.72-1.46,5.32c-0.17,0.47-0.33,0.92-0.46,1.3
		c0.04-0.1-11.9,28.07-16.43,38.77c-3.97-10.5-14.17-37.49-14.18-37.5l-0.21-0.54c-0.7-1.79-2.15-5.51-2.15-7.19
		c0-2.34,2.48-2.96,3.95-2.96l0.49,0.02c1.34,0.07,3.36,0.17,4.64-1c0.61-0.56,0.94-1.32,0.94-2.18c0-1.07-0.33-1.92-0.97-2.53
		c-1.02-0.98-2.41-0.97-3.44-0.96l-0.28,0h-27.82l-0.29,0c-0.85-0.01-2.01-0.02-2.89,0.82c-0.58,0.56-0.88,1.35-0.88,2.35
		c0,2.32,1.57,3.49,4.58,3.49c4.9,0.25,5.57,2.07,7.56,7.46l0.41,1.09l22.34,58.17l0.9,2.08c0.47,1.67,1.64,2.75,3.04,2.75
		c2.14,0,3.22-2.51,3.94-4.18l0.19-0.43l0.07-0.11l0.05-0.12l22.06-51.45c0.32-0.75,0.63-1.53,0.97-2.35
		c2.31-5.71,4.92-12.18,10.26-12.92l0.45-0.05c1.35-0.14,4.92-0.51,4.92-3.75C320.22,241.29,320.22,240.19,319.41,239.44"/>
	<path class="st0" d="M386.85,295.58c-1.26,0-2.19,0.9-3.74,2.4c-3.04,2.94-8.7,8.42-19.03,8.42c-18.44,0-28.09-16.65-28.09-33.09
		c0-2.43,0.34-3.02,0.49-3.16c0.33-0.32,1.83-0.31,3.29-0.31l0.77,0h46.62c0.84,0,3.6-0.33,3.6-4.5c0-5.79-2.4-13.22-5.72-17.68
		c-5.28-6.95-13.86-10.94-23.57-10.94c-10.91,0-20.92,3.99-28.91,11.55c-8.02,7.48-11.59,16.38-11.59,28.86
		c0,22.36,16.17,39.87,36.81,39.87c10.3,0,18.17-2.98,25.63-9.77c5.67-5.25,6.43-7.31,6.43-8.62
		C389.83,296.91,388.52,295.58,386.85,295.58 M340.79,253.4c4.29-6.44,11.21-10.28,18.52-10.28c3.66,0,8.72,0.79,12.04,4.51
		c2.18,2.51,3.59,5.9,3.59,8.65c0,2.76-1.26,4.2-4.39,4.96c-4.24,1.1-12.72,1.26-17.39,1.26h-12.46l-0.77,0.02
		c-0.58,0.02-2.34,0.08-2.67-0.25l-0.03-0.21C337.22,259.94,339.4,255.22,340.79,253.4"/>
	<path class="st0" d="M441.85,237.67c-8.48,0-14.1,7.3-17.17,11.35v-7.99l0-0.27c0.01-0.96,0.03-2.27-0.94-3.21
		c-0.39-0.38-1.08-0.83-2.2-0.83c-1.81,0-2.91,1.34-3.64,2.22l-0.51,0.6c-2.27,2.91-8.61,6.98-11.94,8.02l-0.59,0.19
		c-1.43,0.45-4.1,1.29-4.1,4.21c0,1.81,1.45,3.02,3.6,3.02h2c1.87,0,2.86,0.4,3.16,0.76c0.51,0.55,1.12,2.55,1.09,8.92v0.55v31.15
		c0,0.94,0.02,1.85,0.05,2.72c0.16,6.41-0.05,8.65-5.39,9.18l-0.75,0.05c-1.54,0.07-5.14,0.24-5.14,3.95c0,1.55,1.02,3.35,3.91,3.35
		c2.44,0,4.92-0.18,7.33-0.35c2.39-0.17,4.86-0.35,7.26-0.35c2.19,0,4.45,0.16,6.83,0.34c2.47,0.18,5.03,0.36,7.6,0.36
		c2.19,0,3.6-1.38,3.6-3.51c0-3.42-3.66-3.67-5.22-3.78l-0.66-0.05c-5.34-0.53-5.56-2.78-5.39-9.18c0.02-0.87,0.04-1.78,0.04-2.72
		v-26.18v-0.76c0-6.17-0.01-9.89,3.21-14.81c1.55-2.09,3.9-5.26,6.42-5.26c1.13,0,1.85,0.82,3.01,2.27c1.37,1.7,3.24,4.04,6.84,4.04
		c4.84,0,8.22-3.43,8.22-8.33C452.37,241.82,447.85,237.67,441.85,237.67"/>
	<path class="st0" d="M458.77,293.06l0.03-0.23c0.16-1.47,0.55-4.92,3.72-4.92c3.33,0,4.04,3.62,4.79,7.45
		c1.33,6.8,3,15.26,15.38,15.26c8.28,0,17.09-5.1,17.09-14.54c0-7.84-5.24-11.29-13.69-14.31l-1.33-0.46
		c-9.87-3.38-23.39-8.02-23.39-22.02c0-6.49,3.04-12.28,8.78-16.74c5.12-3.91,11.44-5.81,19.32-5.81c4.08,0,12.59,1.14,16.64,2.94
		c3.19,1.61,2.96,5.02,2.79,7.51c-0.04,0.54-0.07,1.05-0.07,1.49l0.05,0.69c0.26,3.1,0.42,6.54-1.15,8.19
		c-0.58,0.6-1.36,0.94-2.2,0.94c-2.45,0-3.42-2.4-4.45-4.94c-1.82-4.49-4.32-10.64-14.39-10.64c-5.09,0-12.46,3.76-12.46,10.56
		c0,7.72,7.31,10.39,15.78,13.48c10.7,3.91,22.83,8.34,22.83,24.14c0,16.21-15.8,25.89-31.09,25.89c-5.35,0-14.84-2.09-20.43-5.2
		c-3.1-1.46-3.07-4.22-3.04-6.66l0.01-0.78L458.77,293.06"/>
	<path class="st0" d="M542.31,225.7c5.11,0,8.53-4.01,8.53-9.98c0-4.74-3.08-9.64-8.22-9.64c-4.87,0-8.68,4.38-8.68,9.98
		C533.93,221.64,537.46,225.7,542.31,225.7"/>
	<path class="st0" d="M555.43,308.33l-0.67-0.05c-5.34-0.53-5.55-2.78-5.39-9.18c0.02-0.87,0.05-1.78,0.05-2.72v-55.31v-0.27
		c0.01-0.97,0.02-2.29-0.94-3.24c-0.39-0.38-1.08-0.83-2.19-0.83c-1.81,0-2.92,1.34-3.65,2.22l-0.51,0.6
		c-2.27,2.91-8.61,6.98-11.94,8.02l-0.59,0.19c-1.43,0.45-4.09,1.29-4.09,4.21c0,1.81,1.45,3.02,3.6,3.02h2
		c1.86,0,2.86,0.4,3.15,0.76c0.51,0.55,1.12,2.55,1.09,8.92l0,0.55v31.16c0,0.94,0.02,1.85,0.05,2.72c0.16,6.4-0.05,8.64-5.39,9.18
		l-0.76,0.05c-1.54,0.07-5.13,0.25-5.13,3.95c0,1.54,1.02,3.34,3.91,3.34c2.43,0,4.92-0.17,7.33-0.35c2.39-0.17,4.86-0.35,7.26-0.35
		c2.19,0,4.45,0.16,6.84,0.34c2.47,0.18,5.03,0.36,7.6,0.36c2.19,0,3.61-1.38,3.61-3.51C560.65,308.68,556.99,308.43,555.43,308.33"
		/>
	<path class="st0" d="M606.82,304.37c0-1.36-1.16-2.87-2.83-2.87c-1.06,0-1.86,0.69-3.18,1.82c-1.86,1.6-4.68,4.01-7.9,4.01
		c-1.67,0-2.99-0.49-4.02-1.49c-3.3-3.2-3.3-10.87-3.3-15.94v-0.35v-42.13c0-1.61,0.3-1.94,0.31-1.95c0.23-0.15,1.27-0.09,1.97-0.06
		c0.49,0.03,1.06,0.05,1.66,0.05h8.61c0.61,0,1.16,0.03,1.64,0.05c1.48,0.07,2.77,0.14,3.78-0.8c0.98-0.89,1.11-2.24,1.11-3.55
		c0-1.09,0-3.98-3.14-3.98l-15.09,0.01c-0.47-0.04-0.65-0.11-0.7-0.13c-0.05-0.09-0.15-0.4-0.15-1.48v-11.75
		c0-3.33-2.09-3.68-2.98-3.68c-1.98,0-2.85,1.88-3.15,2.52c-3.36,7.58-7.51,11.47-14.11,16.09l-0.33,0.27
		c-0.84,0.67-2.12,1.68-2.12,3.45c0,0.81,0.33,1.56,0.94,2.1c1.28,1.14,3.35,1.08,5.2,0.93l0.4-0.03c0.37,0,0.7-0.01,0.99-0.01
		c0.34-0.01,0.74-0.02,1.01,0c0.05,0.21,0.09,0.58,0.09,1.31v42.8l-0.02,2.36c-0.07,6.54-0.14,13.96,3.72,19.28
		c2.73,3.64,7.39,5.82,12.46,5.82c5.57,0,11.06-2.38,15.47-6.7C604.23,309.45,606.82,306.87,606.82,304.37"/>
	<path class="st0" d="M688.06,238.81h-24.45c-2.16,0-3.91,1.71-3.91,3.81c0,2.84,3.71,2.84,5.3,2.84c4.24,0,6.39,1.44,6.39,4.27
		c0,1.54-1.18,4.33-1.88,5.99l-0.14,0.33c-0.01,0.03-11.25,28.29-15.57,39.14c-4.28-11.07-15.59-40.26-15.59-40.26l-0.13-0.33
		c-0.71-1.85-1.6-4.15-1.6-5.88c0-3.18,5.46-3.28,6.08-3.28c3.61,0,5.45-0.96,5.45-2.84c0-2.5-1.97-3.81-3.91-3.81h-29.68
		c-2.76,0-4.68,1.57-4.68,3.81c0,2.84,3.81,2.84,5.45,2.84c3.8,0,5.39,3.51,7.36,8.86l0.69,1.81l20.28,51.7
		c0.2,0.57,0.43,1.15,0.68,1.76c0.64,1.59,1.38,3.4,1.38,4.82c0,1.15-0.41,2.2-0.9,3.4c-0.13,0.32-0.26,0.65-0.37,0.96l-5.23,13.1
		c-0.16,0.4-0.31,0.82-0.46,1.22c-0.73,2.05-1.3,3.42-2.47,3.71c-1.52,0.35-3.43,0.32-5.11,0.3l-1.25-0.01
		c-6.68,0-6.68,5.73-6.68,8.18c0,2.12,0.62,3.79,1.84,4.97c2.13,2.06,5.5,2.06,8.21,2.06h0.32c6.7,0,7.52-1.79,9.1-7.45l0.08-0.3
		l30.89-78.62c1.32-3.31,5.32-13.37,8.26-17.38c1.33-1.83,4.16-2.98,5.42-3.11l0.74-0.08c1.56-0.14,4.17-0.38,4.17-2.58
		C692.13,240.4,690.49,238.81,688.06,238.81"/>
</g>
<g>
	<path class="st1" d="M726.68,208.33c0,0,0.01,181.03,0.05,181.63c3.92,43.36,48.7,115.2,122.59,137.34l3.86,0.79l3.59-0.79
		c73.85-22.12,118.59-94.53,122.51-138.4V208.33H726.68z M972.98,388.89c-3.76,41.94-46.89,111.25-118.08,132.58l-1.11,0.33
		l-0.37,0.11l-0.38,0.12l-0.37-0.12l-0.38-0.11l-1.11-0.33C779.93,500.13,736.76,431.07,733,389.43c-0.02-0.33-0.03-175-0.03-175
		h240.01V388.89z"/>
	<path class="st0" d="M733,389.43c3.77,41.64,46.93,110.7,118.18,132.05l1.11,0.33l0.38,0.11l0.37,0.12l0.38-0.12l0.37-0.11
		l1.11-0.33c71.19-21.33,114.31-90.64,118.08-132.58V214.42H732.97C732.97,214.42,732.98,389.1,733,389.43z M739.27,283.45v-62.74
		h227.43v62.74V388.9c-3.28,36.26-42.26,105.37-113.65,126.76c-71.38-21.39-110.5-90.5-113.77-126.76V283.45z"/>
	<path class="st2" d="M877.48,366.38c-1.65-3.2-3.52-4.19-5.22-4.73c-0.19-0.5-0.46-0.97-0.78-1.42c-2.2-3.04-5.77-3.45-8.33-2.5
		c-0.91,0.34-1.47,0.61-1.9,0.86l0.57-0.76l0.11-0.15c0.42-0.53,0.79-1.08,1.36-2.49c0.97-2.48,0.56-5.93-2.59-8.06
		c-0.46-0.31-0.95-0.57-1.46-0.76c-0.54-1.61-1.55-3.44-4.89-5.05l-0.92-0.45l-0.92,0.45c-3.31,1.6-4.33,3.4-4.89,5.05
		c-0.52,0.19-1.01,0.45-1.47,0.76c-3.14,2.13-3.56,5.58-2.59,8.06c0.56,1.41,0.95,1.96,1.36,2.49l0.11,0.15l0.62,0.84
		c-0.44-0.28-1.03-0.57-2.02-0.94c-2.56-0.95-6.12-0.54-8.32,2.5c-0.32,0.45-0.58,0.92-0.79,1.42c-1.66,0.52-3.55,1.5-5.22,4.73
		l-0.46,0.89l0.46,0.89c1.65,3.2,3.51,4.19,5.22,4.73c0.2,0.5,0.47,0.98,0.79,1.42c2.2,3.04,5.76,3.45,8.32,2.5
		c1.46-0.54,2.02-0.91,2.57-1.31l0.16-0.11c0,0,0.5-0.35,0.96-0.67v8.19l-1-0.8l-1.28,1.72l-0.11,0.15
		c-0.41,0.53-0.8,1.08-1.36,2.49c-0.97,2.48-0.55,5.93,2.59,8.06c0.46,0.31,0.95,0.57,1.47,0.76c0.54,1.61,1.55,3.44,4.89,5.06
		l0.92,0.44l0.92-0.44c3.3-1.6,4.33-3.41,4.89-5.06c0.51-0.19,1.01-0.45,1.47-0.76c3.14-2.13,3.56-5.58,2.59-8.06
		c-0.56-1.41-0.94-1.96-1.36-2.49l-0.11-0.15l-1.28-1.7l-1,0.79v-8.16l0.9,0.63l0.15,0.11c0.54,0.4,1.12,0.78,2.57,1.31
		c2.56,0.94,6.13,0.54,8.33-2.5c0.32-0.45,0.59-0.92,0.78-1.42c1.67-0.52,3.55-1.5,5.22-4.73l0.46-0.89L877.48,366.38z
		 M872.55,367.25v0.1l-0.06,0.09c-0.02,0.03-1.85,2.47-4.46,1.86c0.34,0.73,0.46,1.71-0.25,2.69c-1.05,1.45-2.62,1.32-3.31,1.05
		l-0.42-0.17l0.29-0.35c0,0,0.31-0.4,0.37-0.95c0.05-0.53,0-1.33-1.01-2.06c-0.49-0.35-1.74-0.41-2.24-0.41v0l-0.08,0.01h-6v15.75
		c-0.01,0.47,0.05,1.78,0.43,2.26c0.77,0.97,1.59,1.02,2.14,0.98c0.56-0.05,0.97-0.36,0.97-0.36l0.36-0.27l0.17,0.4
		c0.29,0.67,0.42,2.19-1.08,3.21c-1.02,0.68-2.02,0.57-2.78,0.24c0.64,2.52-1.89,4.29-1.91,4.31l-0.09,0.06h-0.11h-0.11l-0.09-0.06
		c-0.04-0.02-2.55-1.79-1.92-4.31c-0.75,0.33-1.76,0.44-2.78-0.24c-1.51-1.02-1.37-2.54-1.08-3.21l0.18-0.41l0.36,0.28
		c0,0,0.41,0.31,0.98,0.36c0.55,0.05,1.37,0,2.13-0.98c0.37-0.47,0.43-1.68,0.42-2.17v0l-0.01-0.07v-15.77h-6.28h-0.06l-0.02-0.01
		c-0.5,0-1.76,0.05-2.24,0.41c-1.01,0.74-1.06,1.53-1.01,2.06c0.06,0.55,0.37,0.95,0.37,0.95l0.28,0.34l-0.42,0.17
		c-0.68,0.27-2.26,0.41-3.31-1.05c-0.71-0.98-0.6-1.96-0.25-2.69c-2.61,0.61-4.44-1.83-4.45-1.86l-0.07-0.09v-0.1v-0.11l0.07-0.09
		c0.02-0.03,1.85-2.47,4.45-1.86c-0.34-0.73-0.46-1.71,0.25-2.69c1.05-1.46,2.63-1.32,3.31-1.05l0.42,0.17l-0.29,0.35
		c0,0-0.31,0.39-0.37,0.95c-0.05,0.53,0,1.32,1.01,2.06c0.5,0.37,1.85,0.42,2.32,0.41h6.27v-8.72v-0.05l0.01-0.02
		c0.01-0.48-0.05-1.7-0.42-2.17c-0.77-0.97-1.58-1.02-2.13-0.98c-0.57,0.05-0.98,0.36-0.98,0.36l-0.35,0.27l-0.18-0.41
		c-0.28-0.66-0.42-2.18,1.08-3.2c1.02-0.69,2.02-0.57,2.78-0.25c-0.63-2.52,1.89-4.29,1.92-4.31l0.09-0.06h0.11h0.11l0.09,0.06
		c0.03,0.02,2.55,1.79,1.91,4.31c0.76-0.33,1.77-0.44,2.78,0.25c1.5,1.02,1.37,2.54,1.08,3.2l-0.18,0.41l-0.35-0.28
		c0,0-0.41-0.3-0.97-0.36c-0.55-0.05-1.37,0-2.14,0.98c-0.38,0.48-0.44,1.79-0.43,2.25v8.71h5.99c0.49,0.01,1.83-0.04,2.33-0.41
		c1.01-0.74,1.06-1.53,1.01-2.06c-0.05-0.55-0.37-0.95-0.37-0.95l-0.28-0.34l0.42-0.17c0.68-0.27,2.26-0.41,3.31,1.05
		c0.71,0.98,0.59,1.96,0.25,2.69c2.61-0.61,4.44,1.83,4.46,1.86l0.06,0.09V367.25z"/>
	<path class="st2" d="M853.04,515.65c71.39-21.39,110.37-90.5,113.65-126.76V283.45H853.24h-0.54H739.27V388.9
		C742.54,425.15,781.66,494.27,853.04,515.65z M787.05,454.75c0,0-0.13,1.8,2.16,3.57c0,0-3.36,2.83,1.11,6.71
		C790.33,465.03,782.61,461.84,787.05,454.75z M818.9,479.13c-14.91-16.22-3.5-27.37,7.37-31.79c7.25-2.95,7.04-5.11,7.04-5.11
		s8.07,2.52,12.86-0.49c0,0-1.11,3.69-3.54,6.86c-12.02,15.61-20.33,7.74-20.33,7.74C812.72,460.66,818.9,479.13,818.9,479.13z
		 M819.3,439.46l0.6,0.31c5.63,3.15,1.53,7.26,1.53,7.26c0.43-2.91-0.52-3.97-1.64-4.42c-0.46-0.19-0.81-0.24-0.81-0.24
		C819.92,441.15,819.3,439.46,819.3,439.46z M886.75,442.1c0,0-0.35,0.06-0.81,0.24c-1.12,0.44-2.07,1.5-1.64,4.42
		c0,0-4.1-4.11,1.53-7.27l0.6-0.31C886.43,439.19,885.81,440.89,886.75,442.1z M878.58,416.62c0,0,1.27,3.31,1.53,3.88
		c2.71,6-1.27,13.89-1.27,13.89c2.13-10.87-9.75-20.79-9.75-20.79c1.71-4.94,6.9-12.18,7.75-13.35c0-0.01,0.01-0.01,0.01-0.02
		l0,0.02c0.04,0.4,0.57,1.71,3.38,6.01c8.09,12.38,15.39,11.55,15.39,11.55C888.86,421.37,878.58,416.62,878.58,416.62z
		 M876.32,389.09c-14.57,25.05-25.12,28.46-4.78,45.62c0,0-13.01,3.51-16.01-7.39c0,0,0.63,12-2.4,15.17c-3.02-3.17-2.42-15-2.42-15
		c-3,10.9-16.01,7.39-16.01,7.39c20.35-17.16,9.8-20.58-4.77-45.62c-13.97-24.02,1.24-34.83,8.2-52.54
		c3.19-0.3,8.55-1.62,10.93-4.12c0,0,1.14,2.04,4.08,2.83c2.92-0.85,4.29-2.89,4.29-2.89c1.98,2.49,7.92,3.88,10.81,4.07
		C875.21,354.33,890.29,365.07,876.32,389.09z M829.41,400.24l0-0.02c0,0.01,0.01,0.01,0.01,0.02c0.85,1.17,6.04,8.41,7.75,13.35
		c0,0-11.87,9.92-9.75,20.79c0,0-3.97-7.88-1.27-13.89c0.26-0.57,1.53-3.88,1.53-3.88s-10.28,4.74-17.06,1.18
		c0,0,7.3,0.83,15.39-11.55C828.84,401.95,829.37,400.63,829.41,400.24z M878.64,480.31c-4.5,3.54-8.05-6.4-8.05-6.4
		s-0.53,9.11-8.65,9.19c0,0,12.07-6.84-0.54-22.85c1.22,11.23-2.82,21.69-8.27,21.69c-5.45,0-9.48-10.46-8.27-21.69
		c-12.6,16.01-0.54,22.85-0.54,22.85c-8.12-0.08-8.65-9.19-8.65-9.19s-3.55,9.94-8.05,6.4c-6.86-5.41,5.08-10.76,5.08-10.76
		c-6.98-0.43-8-4.24-8-4.24c17.62,1.85,25.44-16.03,25.44-16.03c1.15,1.12,2.06,1.28,2.97,1.72c0.92-0.44,1.86-0.61,3-1.72
		c0,0,7.82,17.88,25.45,16.03c0,0-1.02,3.81-8,4.24C873.56,469.54,885.5,474.9,878.64,480.31z M887.37,479.13
		c0,0,6.19-18.47-3.4-22.79c0,0-8.31,7.87-20.33-7.74c-2.44-3.17-3.53-6.86-3.53-6.86c4.78,3.01,12.85,0.49,12.85,0.49
		s-0.2,2.16,7.04,5.11C890.88,451.76,902.29,462.9,887.37,479.13z M915.95,465.03c4.46-3.88,1.11-6.71,1.11-6.71
		c2.29-1.77,2.16-3.57,2.16-3.57C923.67,461.84,915.95,465.03,915.95,465.03z M924,440.94c-0.9,0.62-2.01,0.95-3.19,0.95
		c-1.48,0-2.91-0.51-4.01-1.45c-1.47-1.24-3.51-1.97-5.45-1.97c-0.36,0-0.71,0.03-1.02,0.08c-0.85,0.14-1.49,0.46-1.73,0.85
		c-0.9,1.48,1.16,3.45,3.05,4.85l0.41,0.29c1.64,1.14,5.46,3.8,5.69,7.28c0.12,1.71-0.63,3.32-2.23,4.78
		c-0.75,0.69-1.81,1.07-2.99,1.07c-0.6,0-1.2-0.1-1.78-0.29c-2.62-0.87-4.52-3.48-5.22-7.16c-0.78-4.18-2.14-6.89-3.84-7.63
		c-0.65-0.28-1.83-0.59-2.86-0.59c-0.76,0-1.37,0.16-1.75,0.47c-0.46,0.38-1.58,1.19-1.58,1.19c-0.89,0.58-1.88,0.87-2.87,0.87
		c-1.01,0-1.97-0.31-2.78-0.88c-1.43-1.03-2.06-2.73-1.64-4.43c0.37-1.45,1.08-2.44,2.13-2.94c0.49-0.23,1.03-0.35,1.62-0.35
		c1.27,0,2.52,0.52,3.35,0.92c0.34,0.16,0.75,0.24,1.24,0.24c0.63,0,1.17-0.13,1.32-0.18c0.17-0.1,0.29-0.28,0.29-0.34
		c-0.01-0.06-0.17-0.35-0.88-0.68c-9.63-4.46-11.62-9.67-11.69-9.89l-0.63-1.71l1.81,0.22c0.68,0.08,1.34,0.11,1.98,0.11
		c3.18,0,5.67-0.84,5.69-0.85l0.76-0.27l0.5,0.64c0.06,0.08,6.31,8.02,11.53,8.02c0.66,0,1.29-0.13,1.86-0.39
		c1.55-0.7,2.22-3.42,2.24-4.72c0.03-2.05,1.25-3.81,3.1-4.5c0.48-0.18,0.99-0.28,1.49-0.28c1.2,0,2.32,0.52,3.15,1.45
		c1.19,1.35,1.08,2.68,0.91,3.35c-0.46,1.86-2.25,3.13-3.65,3.66c-0.7,0.26-1.53,0.97-1.68,1.42c0.13,0.26,0.23,0.31,0.58,0.31
		c0,0,1.04-0.04,1.08-0.04c0.46,0,0.84-0.06,1.24-0.12c0.76-0.11,1.76-0.26,2.78-0.26c2.74,0,4.51,1.09,5.27,3.24
		C926.42,437.58,925.82,439.69,924,440.94z M921.59,423.91c-0.24-1.5-1.94-2.25-1.94-2.25c6.88-2.34,7.51,3.61,7.51,3.61
		C924.89,421.57,921.59,423.91,921.59,423.91z M928.38,447.51c2.76-5.16-1.41-6.66-1.41-6.66c1.5-2.44,0.73-4.08,0.73-4.08
		C934.43,441.88,928.38,447.51,928.38,447.51z M910.3,318.4c0,0,34.99-17.65,38.87-29.09c0,0,1.62,10.14,0.97,16.69
		c-0.58,5.82-9.91,15.33-32.44,29.92c13.83-2.05,32.77-9.24,36.9-16.42c0,0,0.07,10.4-2.32,16.57c-1.94,5-11.74,8.58-33.8,19.06
		c10.89,5.8,30.2-0.63,35.73-6.03c0,0-3.06,9.08-6.68,14.66c-2.28,3.52-11.43,9.43-32.69,6.37c7.89,9.51,23.03,16.67,33.3,12.17
		c0,0-1.06,9.03-7.29,11.67c-4.61,1.95-14.34,3.19-29.84-8.44c9.35,22.42,32.16,15.57,32.16,15.57s-5.39,8.93-11.4,12.02
		c-5.33,2.74-16.31,0.54-34.13-18.21c0,0,1.11,16.6,18.64,22.18c-30.5-0.73-35.97-23.13-35.97-23.13c2.91-4.15,3.42-6.31,3.42-6.31
		l0.48-1.22c2.04,2.14,9.72,4.91,9.72,4.91s4.42-3.73,5.53-5.26c2.97-4.12,3.44-7.14,3.44-7.14c5.17,0.13,9.91-4.24,9.91-4.24
		c0.3-4.59-1.66-8.43-1.66-8.43c3.68-1.63,7.48-5.29,7.48-5.29c-2.47-5.06-4.09-6.71-4.09-6.71c5.88-4.41,6.09-7.11,6.09-7.11
		c-1.46-3.82-6.82-7.58-6.82-7.58c2.3-2.98,4.47-8.82,4.47-8.82c-4.23-4.12-8.33-5.35-8.33-5.35
		C910.62,323.07,910.47,320.85,910.3,318.4z M898.49,305.24c0,0,10.32,18.44,0.76,25.21c0,0,5.96-0.6,11.1,2.09
		c0,0-3.56,6.09-7.19,8.19c0,0,7.58,3.65,9.61,6.43c0,0-4.73,4.08-11.48,4.51c0,0,6.99,4.29,8.84,7.66c0,0-5.22,3.54-11.86,2.35
		c0,0,7.2,4.73,7.75,9.94c0,0-7.41,2.05-12.52-4.05c0,0,4.69,7.7,1.89,12.92c-0.9,1.67-2.65,3.29-2.65,3.29
		c-4.55-2.16-5.27-2.35-5.64-7.17c-0.18-2.32,0.42-2.66,0.23-7.68c-0.15-4.12-0.61-8.03-0.61-8.03s9.6-1.53,7.32-17.77
		c0,0-13.09,8.56-14.51-3.1C877.78,325.83,899.95,333.09,898.49,305.24z M824.6,308.98c-0.07,1.34,1.5,3.35,2.88,4.34
		c2.17,1.55,18.99,0.52,20.88,0.44c-1.66-3.27-9.2-8.87-13.5-8.71c-4.46,0.15-5.53,4.16-5.53,4.16c-1.93-2.13-2.23-5.51,0.58-8.38
		c2.45-2.5,14.21-3.17,14.78-3.8c0.58-0.63,1.09-2.39,3.85-1.9c2.76,0.49,5.37,4.87,13,2.95c0,0,6.25-0.42,4.87-3.94
		c-0.59-1.52-3.85-1.55-3.85-1.55s7.69-1.32,6.98,4.85c-0.51,4.43-7.22,3.74-7.7,11.25c-0.07,1.12-0.55,16.12,7.85,21.71
		c0,0-9.99-0.65-13.97-10.91c0,0,0,7.49-2.59,7.52c-2.27-0.03-3.18-7.23-3.18-7.23c-0.91,9.59-12.46,8.86-12.46,8.86
		c7.88-1.13,5.49-5.19,4.79-6.41c-1.06-1.83-4.57-0.92-5.66-0.62c-5.23,1.42-4.83-1.83-4.83-1.83l13.38,0
		c3.56-0.29,3.19-3.34,3.59-4.52c-1.74,0.02-17.98,0.49-19.15,0.42c-1.23-0.07-1.84,0.16-3.87-1.17
		C823.7,313.15,824.6,308.98,824.6,308.98z M807.79,305.24c-1.46,27.84,20.71,20.59,18.98,34.77c-1.42,11.67-14.51,3.1-14.51,3.1
		c-2.28,16.24,7.32,17.77,7.32,17.77s-0.46,3.92-0.61,8.03c-0.19,5.02,0.41,5.37,0.23,7.68c-0.37,4.81-1.09,5.01-5.64,7.17
		c0,0-1.76-1.62-2.65-3.29c-2.81-5.22,1.89-12.92,1.89-12.92c-5.1,6.1-12.51,4.05-12.51,4.05c0.55-5.21,7.75-9.94,7.75-9.94
		c-6.63,1.19-11.87-2.35-11.87-2.35c1.85-3.37,8.84-7.66,8.84-7.66c-6.75-0.43-11.48-4.51-11.48-4.51c2.03-2.78,9.6-6.43,9.6-6.43
		c-3.62-2.09-7.18-8.19-7.18-8.19c5.14-2.68,11.1-2.09,11.1-2.09C797.46,323.69,807.79,305.24,807.79,305.24z M763.11,401.09
		c0,0,22.81,6.85,32.16-15.57c-15.5,11.63-25.22,10.39-29.84,8.44c-6.24-2.64-7.29-11.67-7.29-11.67
		c10.27,4.5,25.41-2.66,33.3-12.17c-21.26,3.05-30.41-2.85-32.69-6.37c-3.61-5.58-6.68-14.66-6.68-14.66
		c5.53,5.4,24.85,11.83,35.73,6.03c-22.06-10.49-31.86-14.06-33.8-19.06c-2.39-6.17-2.32-16.57-2.32-16.57
		c4.13,7.18,23.06,14.37,36.9,16.42c-22.53-14.6-31.86-24.11-32.44-29.92c-0.66-6.55,0.97-16.69,0.97-16.69
		c3.87,11.44,38.87,29.09,38.87,29.09c-0.17,2.45-0.32,4.68,0.33,7.01c0,0-4.09,1.23-8.33,5.35c0,0,2.18,5.84,4.48,8.82
		c0,0-5.36,3.76-6.82,7.58c0,0,0.21,2.7,6.09,7.11c0,0-1.62,1.65-4.09,6.71c0,0,3.8,3.65,7.48,5.29c0,0-1.95,3.84-1.66,8.43
		c0,0,4.73,4.37,9.91,4.24c0,0,0.46,3.02,3.44,7.14c1.11,1.54,5.53,5.26,5.53,5.26s7.67-2.77,9.72-4.91l0.48,1.22
		c0,0,0.52,2.16,3.43,6.31c0,0-5.47,22.4-35.97,23.13c17.53-5.58,18.64-22.18,18.64-22.18c-17.82,18.76-28.8,20.96-34.13,18.21
		C768.51,410.03,763.11,401.09,763.11,401.09z M777.9,447.51c0,0-6.05-5.63,0.68-10.74c0,0-0.78,1.64,0.73,4.08
		C779.31,440.85,775.14,442.35,777.9,447.51z M779.12,425.27c0,0,0.63-5.95,7.51-3.61c0,0-1.7,0.75-1.93,2.25
		C784.69,423.91,781.39,421.57,779.12,425.27z M780.66,435.28c0.76-2.15,2.53-3.24,5.27-3.24c1.05,0,2.05,0.15,2.78,0.27
		c0.44,0.07,0.89,0.13,1.08,0.13l1.24,0.03c0.37,0,0.45-0.06,0.59-0.28c-0.17-0.48-1-1.18-1.7-1.45c-1.5-0.56-3.21-1.91-3.65-3.65
		c-0.2-0.83-0.21-2.08,0.91-3.35c0.83-0.94,1.94-1.45,3.15-1.45c0.5,0,1.01,0.09,1.49,0.27c1.85,0.68,3.07,2.45,3.11,4.5
		c0.02,1.26,0.71,4.03,2.25,4.72c0.57,0.26,1.2,0.39,1.86,0.39c5.22,0,11.47-7.94,11.53-8.02l0.5-0.65l0.76,0.27
		c0.03,0.01,2.43,0.85,5.66,0.85c0.64,0,1.32-0.04,2.01-0.11l1.81-0.22l-0.63,1.71c-0.08,0.22-2.07,5.43-11.69,9.89
		c-0.71,0.33-0.88,0.62-0.88,0.68c0,0.05,0.12,0.23,0.46,0.4c0.43,0.09,0.86,0.11,1.13,0.11c0.5,0,0.92-0.08,1.26-0.24
		c0.83-0.4,2.07-0.92,3.33-0.92c0.59,0,1.15,0.12,1.63,0.35c1.05,0.5,1.76,1.48,2.12,2.94c0.43,1.7-0.2,3.4-1.63,4.43
		c-0.81,0.59-1.78,0.89-2.79,0.89c-0.98,0-1.95-0.29-2.8-0.84c-0.03-0.02-1.16-0.85-1.64-1.23c-0.38-0.31-0.98-0.47-1.73-0.47
		c-1.19,0-2.37,0.37-2.88,0.59c-1.68,0.74-3.04,3.45-3.83,7.63c-0.69,3.68-2.59,6.28-5.21,7.15c-0.58,0.2-1.18,0.3-1.78,0.3
		c-1.18,0-2.24-0.38-2.99-1.07c-1.6-1.46-2.35-3.06-2.23-4.78c0.23-3.48,4.04-6.14,5.67-7.27l0.42-0.3c1.89-1.4,3.95-3.37,3.06-4.85
		c-0.24-0.4-0.89-0.71-1.73-0.85c-0.31-0.05-0.65-0.08-1.02-0.08c-1.94,0-3.98,0.74-5.45,1.98c-1.1,0.93-2.53,1.44-4.01,1.44
		c-1.19,0-2.29-0.33-3.2-0.95C780.46,439.69,779.86,437.58,780.66,435.28z"/>
	<path class="st2" d="M849.72,303.62c0-0.43-0.14-0.83-0.38-1.17l1.6-0.16l0.54-0.05l-0.14-0.51l-0.56-2.05l-0.13-0.49l-0.49,0.19
		l-9.44,3.55l5.06-0.27l-0.3,0.96c0,1.13,0.94,2.05,2.12,2.05C848.77,305.67,849.72,304.75,849.72,303.62z"/>
	<path class="st3" d="M784.69,423.91c0.24-1.5,1.93-2.25,1.93-2.25c-6.88-2.34-7.51,3.61-7.51,3.61
		C781.39,421.57,784.69,423.91,784.69,423.91z"/>
	<path class="st3" d="M778.58,436.77c-6.74,5.11-0.68,10.74-0.68,10.74c-2.76-5.16,1.41-6.66,1.41-6.66
		C777.8,438.41,778.58,436.77,778.58,436.77z"/>
	<path class="st3" d="M789.22,458.32c-2.29-1.77-2.16-3.57-2.16-3.57c-4.44,7.08,3.27,10.28,3.27,10.28
		C785.86,461.15,789.22,458.32,789.22,458.32z"/>
	<path class="st3" d="M885.83,439.5c-5.63,3.15-1.53,7.27-1.53,7.27c-0.43-2.91,0.52-3.97,1.64-4.42c0.46-0.19,0.81-0.24,0.81-0.24
		c-0.94-1.22-0.31-2.92-0.31-2.92L885.83,439.5z"/>
	<path class="st3" d="M919.65,421.66c0,0,1.7,0.75,1.94,2.25c0,0,3.29-2.34,5.57,1.36C927.17,425.27,926.54,419.32,919.65,421.66z"
		/>
	<path class="st3" d="M927.7,436.77c0,0,0.78,1.64-0.73,4.08c0,0,4.17,1.5,1.41,6.66C928.38,447.51,934.43,441.88,927.7,436.77z"/>
	<path class="st3" d="M917.07,458.32c0,0,3.35,2.83-1.11,6.71c0,0,7.72-3.2,3.27-10.28C919.23,454.75,919.36,456.55,917.07,458.32z"
		/>
	<path class="st3" d="M842.63,448.6c2.43-3.17,3.54-6.86,3.54-6.86c-4.79,3.01-12.86,0.49-12.86,0.49s0.2,2.16-7.04,5.11
		c-10.87,4.42-22.28,15.57-7.37,31.79c0,0-6.18-18.47,3.4-22.79C822.3,456.34,830.61,464.21,842.63,448.6z"/>
	<path class="st3" d="M807.02,330.45c0,0-5.96-0.6-11.1,2.09c0,0,3.56,6.09,7.18,8.19c0,0-7.57,3.65-9.6,6.43
		c0,0,4.73,4.08,11.48,4.51c0,0-6.98,4.29-8.84,7.66c0,0,5.23,3.54,11.87,2.35c0,0-7.2,4.73-7.75,9.94c0,0,7.41,2.05,12.51-4.05
		c0,0-4.7,7.7-1.89,12.92c0.89,1.67,2.65,3.29,2.65,3.29c4.55-2.16,5.27-2.35,5.64-7.17c0.18-2.32-0.42-2.66-0.23-7.68
		c0.15-4.12,0.61-8.03,0.61-8.03s-9.6-1.53-7.32-17.77c0,0,13.09,8.56,14.51-3.1c1.73-14.18-20.44-6.92-18.98-34.77
		C807.79,305.24,797.46,323.69,807.02,330.45z"/>
	<path class="st3" d="M808.64,394.91c0,0-1.11,16.6-18.64,22.18c30.5-0.73,35.97-23.13,35.97-23.13c-2.91-4.15-3.43-6.31-3.43-6.31
		l-0.48-1.22c-2.05,2.14-9.72,4.91-9.72,4.91s-4.42-3.73-5.53-5.26c-2.97-4.12-3.44-7.14-3.44-7.14c-5.17,0.13-9.91-4.24-9.91-4.24
		c-0.29-4.59,1.66-8.43,1.66-8.43c-3.68-1.63-7.48-5.29-7.48-5.29c2.48-5.06,4.09-6.71,4.09-6.71c-5.88-4.41-6.09-7.11-6.09-7.11
		c1.46-3.82,6.82-7.58,6.82-7.58c-2.3-2.98-4.48-8.82-4.48-8.82c4.24-4.12,8.33-5.35,8.33-5.35c-0.65-2.33-0.5-4.56-0.33-7.01
		c0,0-34.99-17.65-38.87-29.09c0,0-1.63,10.14-0.97,16.69c0.58,5.82,9.9,15.33,32.44,29.92c-13.84-2.05-32.77-9.24-36.9-16.42
		c0,0-0.06,10.4,2.32,16.57c1.94,5,11.74,8.58,33.8,19.06c-10.88,5.8-30.2-0.63-35.73-6.03c0,0,3.07,9.08,6.68,14.66
		c2.29,3.52,11.44,9.43,32.69,6.37c-7.89,9.51-23.03,16.67-33.3,12.17c0,0,1.05,9.03,7.29,11.67c4.61,1.95,14.34,3.19,29.84-8.44
		c-9.35,22.42-32.16,15.57-32.16,15.57s5.39,8.93,11.4,12.02C779.84,415.86,790.82,413.66,808.64,394.91z"/>
	<path class="st3" d="M810.64,417.8c6.78,3.56,17.06-1.18,17.06-1.18s-1.27,3.31-1.53,3.88c-2.71,6,1.27,13.89,1.27,13.89
		c-2.13-10.87,9.75-20.79,9.75-20.79c-1.71-4.94-6.9-12.18-7.75-13.35c0-0.01-0.01-0.01-0.01-0.02l0,0.02
		c-0.04,0.4-0.57,1.71-3.38,6.01C817.94,418.64,810.64,417.8,810.64,417.8z"/>
	<path class="st3" d="M895.64,417.8c0,0-7.3,0.83-15.39-11.55c-2.81-4.3-3.35-5.62-3.38-6.01l0-0.02c0,0.01-0.01,0.01-0.01,0.02
		c-0.85,1.17-6.04,8.41-7.75,13.35c0,0,11.87,9.92,9.75,20.79c0,0,3.97-7.88,1.27-13.89c-0.26-0.57-1.53-3.88-1.53-3.88
		S888.86,421.37,895.64,417.8z"/>
	<path class="st3" d="M789.48,440.45c1.47-1.24,3.51-1.98,5.45-1.98c0.36,0,0.7,0.03,1.02,0.08c0.85,0.14,1.49,0.46,1.73,0.85
		c0.89,1.49-1.17,3.46-3.06,4.85l-0.42,0.3c-1.63,1.13-5.44,3.79-5.67,7.27c-0.12,1.71,0.64,3.32,2.23,4.78
		c0.75,0.69,1.81,1.07,2.99,1.07c0.6,0,1.2-0.1,1.78-0.3c2.62-0.87,4.52-3.48,5.21-7.15c0.79-4.18,2.15-6.89,3.83-7.63
		c0.51-0.22,1.69-0.59,2.88-0.59c0.76,0,1.36,0.16,1.73,0.47c0.47,0.39,1.61,1.22,1.64,1.23c0.85,0.55,1.82,0.84,2.8,0.84
		c1.02,0,1.98-0.31,2.79-0.89c1.43-1.03,2.06-2.73,1.63-4.43c-0.36-1.45-1.07-2.44-2.12-2.94c-0.49-0.23-1.04-0.35-1.63-0.35
		c-1.26,0-2.5,0.52-3.33,0.92c-0.34,0.16-0.77,0.24-1.26,0.24c-0.27,0-0.7-0.02-1.13-0.11c-0.34-0.17-0.46-0.35-0.46-0.4
		c0-0.05,0.17-0.35,0.88-0.68c9.63-4.46,11.62-9.67,11.69-9.89l0.63-1.71l-1.81,0.22c-0.69,0.08-1.37,0.11-2.01,0.11
		c-3.23,0-5.64-0.84-5.66-0.85l-0.76-0.27l-0.5,0.65c-0.06,0.08-6.31,8.02-11.53,8.02c-0.66,0-1.29-0.13-1.86-0.39
		c-1.53-0.69-2.23-3.46-2.25-4.72c-0.04-2.05-1.25-3.82-3.11-4.5c-0.49-0.18-0.99-0.27-1.49-0.27c-1.21,0-2.32,0.51-3.15,1.45
		c-1.12,1.28-1.12,2.53-0.91,3.35c0.44,1.74,2.15,3.09,3.65,3.65c0.7,0.27,1.54,0.97,1.7,1.45c-0.14,0.22-0.23,0.28-0.59,0.28
		l-1.24-0.03c-0.19,0-0.64-0.06-1.08-0.13c-0.73-0.11-1.73-0.27-2.78-0.27c-2.74,0-4.52,1.09-5.27,3.24c-0.8,2.29-0.2,4.4,1.61,5.65
		c0.91,0.62,2.01,0.95,3.2,0.95C786.95,441.89,788.38,441.38,789.48,440.45z"/>
	<path class="st3" d="M819.79,442.61c1.11,0.44,2.07,1.51,1.64,4.42c0,0,4.1-4.11-1.53-7.26l-0.6-0.31c0,0,0.63,1.7-0.31,2.91
		C818.99,442.37,819.33,442.43,819.79,442.61z"/>
	<path class="st3" d="M880.01,447.33c-7.25-2.95-7.04-5.11-7.04-5.11s-8.07,2.52-12.85-0.49c0,0,1.1,3.69,3.53,6.86
		c12.01,15.61,20.33,7.74,20.33,7.74c9.59,4.32,3.4,22.79,3.4,22.79C902.29,462.9,890.88,451.76,880.01,447.33z"/>
	<path class="st3" d="M894.03,343.11c2.28,16.24-7.32,17.77-7.32,17.77s0.46,3.92,0.61,8.03c0.19,5.02-0.41,5.37-0.23,7.68
		c0.37,4.81,1.09,5.01,5.64,7.17c0,0,1.75-1.62,2.65-3.29c2.8-5.22-1.89-12.92-1.89-12.92c5.1,6.1,12.52,4.05,12.52,4.05
		c-0.55-5.21-7.75-9.94-7.75-9.94c6.64,1.19,11.86-2.35,11.86-2.35c-1.85-3.37-8.84-7.66-8.84-7.66c6.75-0.43,11.48-4.51,11.48-4.51
		c-2.03-2.78-9.61-6.43-9.61-6.43c3.63-2.09,7.19-8.19,7.19-8.19c-5.14-2.68-11.1-2.09-11.1-2.09c9.56-6.76-0.76-25.21-0.76-25.21
		c1.46,27.84-20.71,20.59-18.98,34.77C880.94,351.68,894.03,343.11,894.03,343.11z"/>
	<path class="st3" d="M918.29,330.75c0,0-2.17,5.84-4.47,8.82c0,0,5.36,3.76,6.82,7.58c0,0-0.21,2.7-6.09,7.11
		c0,0,1.62,1.65,4.09,6.71c0,0-3.8,3.65-7.48,5.29c0,0,1.95,3.84,1.66,8.43c0,0-4.73,4.37-9.91,4.24c0,0-0.46,3.02-3.44,7.14
		c-1.11,1.54-5.53,5.26-5.53,5.26s-7.67-2.77-9.72-4.91l-0.48,1.22c0,0-0.51,2.16-3.42,6.31c0,0,5.46,22.4,35.97,23.13
		c-17.53-5.58-18.64-22.18-18.64-22.18c17.82,18.76,28.8,20.96,34.13,18.21c6.01-3.09,11.4-12.02,11.4-12.02
		s-22.81,6.85-32.16-15.57c15.5,11.63,25.22,10.39,29.84,8.44c6.23-2.64,7.29-11.67,7.29-11.67c-10.27,4.5-25.41-2.66-33.3-12.17
		c21.26,3.05,30.41-2.85,32.69-6.37c3.62-5.58,6.68-14.66,6.68-14.66c-5.53,5.4-24.84,11.83-35.73,6.03
		c22.06-10.49,31.86-14.06,33.8-19.06c2.39-6.17,2.32-16.57,2.32-16.57c-4.13,7.18-23.07,14.37-36.9,16.42
		c22.53-14.6,31.86-24.11,32.44-29.92c0.65-6.55-0.97-16.69-0.97-16.69c-3.88,11.44-38.87,29.09-38.87,29.09
		c0.17,2.45,0.32,4.68-0.34,7.01C909.96,325.4,914.06,326.63,918.29,330.75z"/>
	<path class="st3" d="M920.35,432.04c-1.03,0-2.03,0.15-2.78,0.26c-0.41,0.06-0.79,0.12-1.24,0.12c-0.03,0-1.08,0.04-1.08,0.04
		c-0.35,0-0.45-0.05-0.58-0.31c0.15-0.45,0.98-1.15,1.68-1.42c1.4-0.53,3.19-1.81,3.65-3.66c0.17-0.67,0.28-2-0.91-3.35
		c-0.83-0.93-1.95-1.45-3.15-1.45c-0.51,0-1.01,0.09-1.49,0.28c-1.85,0.68-3.07,2.45-3.1,4.5c-0.02,1.3-0.7,4.03-2.24,4.72
		c-0.57,0.26-1.2,0.39-1.86,0.39c-5.22,0-11.47-7.94-11.53-8.02l-0.5-0.64l-0.76,0.27c-0.02,0.01-2.51,0.85-5.69,0.85
		c-0.64,0-1.3-0.03-1.98-0.11l-1.81-0.22l0.63,1.71c0.08,0.22,2.07,5.43,11.69,9.89c0.7,0.32,0.87,0.62,0.88,0.68
		c0,0.05-0.12,0.24-0.29,0.34c-0.15,0.04-0.69,0.18-1.32,0.18c-0.49,0-0.91-0.08-1.24-0.24c-0.83-0.4-2.08-0.92-3.35-0.92
		c-0.59,0-1.14,0.12-1.62,0.35c-1.05,0.5-1.76,1.49-2.13,2.94c-0.42,1.7,0.21,3.4,1.64,4.43c0.8,0.58,1.76,0.88,2.78,0.88
		c0.99,0,1.97-0.29,2.87-0.87c0,0,1.12-0.82,1.58-1.19c0.38-0.31,0.98-0.47,1.75-0.47c1.03,0,2.21,0.31,2.86,0.59
		c1.7,0.75,3.06,3.46,3.84,7.63c0.69,3.68,2.59,6.28,5.22,7.16c0.58,0.2,1.18,0.29,1.78,0.29c1.18,0,2.24-0.38,2.99-1.07
		c1.6-1.46,2.35-3.07,2.23-4.78c-0.23-3.48-4.05-6.14-5.69-7.28l-0.41-0.29c-1.89-1.4-3.95-3.37-3.05-4.85
		c0.24-0.4,0.89-0.71,1.73-0.85c0.31-0.05,0.66-0.08,1.02-0.08c1.94,0,3.98,0.74,5.45,1.97c1.1,0.93,2.52,1.45,4.01,1.45
		c1.18,0,2.29-0.33,3.19-0.95c1.81-1.25,2.42-3.36,1.61-5.66C924.86,433.13,923.09,432.04,920.35,432.04z"/>
	<path class="st3" d="M881.57,465.3c-17.63,1.85-25.45-16.03-25.45-16.03c-1.15,1.12-2.08,1.28-3,1.72
		c-0.91-0.44-1.82-0.61-2.97-1.72c0,0-7.82,17.88-25.44,16.03c0,0,1.02,3.81,8,4.24c0,0-11.94,5.36-5.08,10.76
		c4.5,3.54,8.05-6.4,8.05-6.4s0.53,9.11,8.65,9.19c0,0-12.06-6.84,0.54-22.85c-1.22,11.23,2.82,21.69,8.27,21.69
		c5.45,0,9.49-10.46,8.27-21.69c12.6,16.01,0.54,22.85,0.54,22.85c8.12-0.08,8.65-9.19,8.65-9.19s3.55,9.94,8.05,6.4
		c6.85-5.41-5.08-10.76-5.08-10.76C880.55,469.12,881.57,465.3,881.57,465.3z"/>
	<path class="st3" d="M825.73,314.49c2.03,1.34,2.64,1.11,3.87,1.17c1.17,0.07,17.41-0.4,19.15-0.42c-0.4,1.18-0.02,4.24-3.59,4.52
		l-13.38,0c0,0-0.4,3.26,4.83,1.83c1.09-0.3,4.6-1.21,5.66,0.62c0.7,1.22,3.1,5.28-4.79,6.41c0,0,11.55,0.74,12.46-8.86
		c0,0,0.91,7.2,3.18,7.23c2.59-0.03,2.59-7.52,2.59-7.52c3.98,10.26,13.97,10.91,13.97,10.91c-8.4-5.59-7.92-20.58-7.85-21.71
		c0.49-7.51,7.19-6.82,7.7-11.25c0.71-6.18-6.98-4.85-6.98-4.85s3.26,0.03,3.85,1.55c1.38,3.52-4.87,3.94-4.87,3.94
		c-7.63,1.91-10.24-2.46-13-2.95c-2.76-0.49-3.27,1.27-3.85,1.9c-0.58,0.63-12.33,1.3-14.78,3.8c-2.81,2.87-2.51,6.25-0.58,8.38
		c0,0,1.07-4.01,5.53-4.16c4.3-0.15,11.83,5.44,13.5,8.71c-1.89,0.08-18.71,1.12-20.88-0.44c-1.38-0.99-2.95-3-2.88-4.34
		C824.6,308.98,823.7,313.15,825.73,314.49z M847.6,305.67c-1.17,0-2.12-0.92-2.12-2.05l0.3-0.96l-5.06,0.27l9.44-3.55l0.49-0.19
		l0.13,0.49l0.56,2.05l0.14,0.51l-0.54,0.05l-1.6,0.16c0.24,0.33,0.38,0.74,0.38,1.17C849.72,304.75,848.77,305.67,847.6,305.67z"/>
	<path class="st3" d="M868.24,336.62c-2.88-0.2-8.83-1.58-10.81-4.07c0,0-1.36,2.04-4.29,2.89c-2.94-0.79-4.08-2.83-4.08-2.83
		c-2.38,2.5-7.75,3.82-10.93,4.12c-6.96,17.71-22.17,28.51-8.2,52.54c14.57,25.05,25.12,28.46,4.77,45.62c0,0,13.01,3.51,16.01-7.39
		c0,0-0.6,11.83,2.42,15c3.03-3.17,2.4-15.17,2.4-15.17c3,10.9,16.01,7.39,16.01,7.39c-20.34-17.16-9.79-20.57,4.78-45.62
		C890.29,365.07,875.21,354.33,868.24,336.62z M872.25,372.89c-0.19,0.5-0.46,0.97-0.78,1.42c-2.2,3.04-5.77,3.45-8.33,2.5
		c-1.45-0.54-2.02-0.91-2.57-1.31l-0.15-0.11l-0.9-0.63v8.16l1-0.79l1.28,1.7l0.11,0.15c0.42,0.53,0.79,1.08,1.36,2.49
		c0.97,2.48,0.56,5.93-2.59,8.06c-0.46,0.31-0.95,0.57-1.47,0.76c-0.56,1.65-1.58,3.46-4.89,5.06l-0.92,0.44l-0.92-0.44
		c-3.34-1.61-4.35-3.44-4.89-5.06c-0.51-0.19-1.01-0.45-1.47-0.76c-3.14-2.13-3.56-5.58-2.59-8.06c0.56-1.41,0.95-1.96,1.36-2.49
		l0.11-0.15l1.28-1.72l1,0.8v-8.19c-0.46,0.32-0.96,0.67-0.96,0.67l-0.16,0.11c-0.54,0.4-1.11,0.78-2.57,1.31
		c-2.56,0.94-6.12,0.54-8.32-2.5c-0.32-0.45-0.59-0.92-0.79-1.42c-1.7-0.54-3.57-1.53-5.22-4.73l-0.46-0.89l0.46-0.89
		c1.67-3.23,3.56-4.21,5.22-4.73c0.2-0.5,0.47-0.97,0.79-1.42c2.2-3.04,5.76-3.45,8.32-2.5c1,0.37,1.58,0.66,2.02,0.94l-0.62-0.84
		l-0.11-0.15c-0.41-0.53-0.8-1.08-1.36-2.49c-0.97-2.48-0.55-5.93,2.59-8.06c0.46-0.31,0.95-0.57,1.47-0.76
		c0.55-1.65,1.58-3.46,4.89-5.05l0.92-0.45l0.92,0.45c3.34,1.61,4.35,3.44,4.89,5.05c0.51,0.19,1,0.45,1.46,0.76
		c3.14,2.13,3.56,5.58,2.59,8.06c-0.56,1.41-0.94,1.96-1.36,2.49l-0.11,0.15l-0.57,0.76c0.43-0.25,0.99-0.52,1.9-0.86
		c2.56-0.95,6.13-0.54,8.33,2.5c0.32,0.45,0.59,0.92,0.78,1.42c1.71,0.54,3.57,1.53,5.22,4.73l0.46,0.89l-0.46,0.89
		C875.81,371.39,873.92,372.37,872.25,372.89z"/>
	<path class="st3" d="M868.03,365.2c0.34-0.73,0.46-1.71-0.25-2.69c-1.05-1.46-2.62-1.32-3.31-1.05l-0.42,0.17l0.28,0.34
		c0,0,0.32,0.4,0.37,0.95c0.05,0.53,0,1.32-1.01,2.06c-0.5,0.37-1.85,0.42-2.33,0.41h-5.99v-8.71c-0.01-0.46,0.05-1.77,0.43-2.25
		c0.76-0.97,1.58-1.02,2.14-0.98c0.56,0.05,0.97,0.36,0.97,0.36l0.35,0.28l0.18-0.41c0.29-0.66,0.42-2.18-1.08-3.2
		c-1.02-0.69-2.02-0.57-2.78-0.25c0.64-2.52-1.89-4.29-1.91-4.31l-0.09-0.06h-0.11h-0.11l-0.09,0.06c-0.04,0.02-2.55,1.79-1.92,4.31
		c-0.75-0.33-1.76-0.44-2.78,0.25c-1.51,1.02-1.37,2.54-1.08,3.2l0.18,0.41l0.35-0.27c0,0,0.41-0.31,0.98-0.36
		c0.55-0.05,1.37,0,2.13,0.98c0.37,0.47,0.43,1.68,0.42,2.17l-0.01,0.02v0.05v8.72h-6.27c-0.48,0.01-1.82-0.04-2.32-0.41
		c-1.01-0.74-1.06-1.53-1.01-2.06c0.06-0.55,0.37-0.95,0.37-0.95l0.29-0.35l-0.42-0.17c-0.68-0.27-2.26-0.41-3.31,1.05
		c-0.71,0.98-0.6,1.96-0.25,2.69c-2.61-0.61-4.44,1.83-4.45,1.86l-0.07,0.09v0.11v0.1l0.07,0.09c0.02,0.03,1.85,2.47,4.45,1.86
		c-0.34,0.73-0.46,1.71,0.25,2.69c1.05,1.45,2.63,1.32,3.31,1.05l0.42-0.17l-0.28-0.34c-0.01,0-0.32-0.4-0.37-0.95
		c-0.05-0.53,0-1.32,1.01-2.06c0.48-0.35,1.74-0.41,2.24-0.41l0.02,0.01h0.06h6.28v15.77l0.01,0.07v0c0.01,0.48-0.05,1.7-0.42,2.17
		c-0.77,0.97-1.58,1.02-2.13,0.98c-0.57-0.05-0.98-0.36-0.98-0.36l-0.36-0.28l-0.18,0.41c-0.28,0.67-0.42,2.19,1.08,3.21
		c1.02,0.68,2.02,0.57,2.78,0.24c-0.63,2.52,1.89,4.29,1.92,4.31l0.09,0.06h0.11h0.11l0.09-0.06c0.03-0.02,2.55-1.79,1.91-4.31
		c0.76,0.33,1.77,0.44,2.78-0.24c1.5-1.02,1.37-2.54,1.08-3.21l-0.17-0.4l-0.36,0.27c0,0-0.41,0.31-0.97,0.36
		c-0.55,0.05-1.37,0-2.14-0.98c-0.38-0.48-0.43-1.79-0.43-2.26v-15.75h6l0.08-0.01v0c0.5,0,1.75,0.05,2.24,0.41
		c1.01,0.74,1.06,1.53,1.01,2.06c-0.05,0.55-0.37,0.95-0.37,0.95l-0.29,0.35l0.42,0.17c0.68,0.27,2.26,0.41,3.31-1.05
		c0.71-0.98,0.59-1.96,0.25-2.69c2.61,0.61,4.44-1.83,4.46-1.86l0.06-0.09v-0.1v-0.1l-0.06-0.09
		C872.47,367.03,870.64,364.59,868.03,365.2z"/>
	<path class="st0" d="M853.24,283.45h113.45v-62.74H739.27v62.74h113.44H853.24z M909.43,242.62l6.82,1.42l1.29-3.52l3.98,4.36
		l-1.15-11.28l4.19,3.35l4.49-8.49l4.49,8.49l4.18-3.35l-1.15,11.28l3.98-4.37l1.29,3.52l6.82-1.42l-1.88,7.09l3.24,0.98
		l-10.66,9.77l2.32,3.6l-10.57-0.87c-0.26,0.95-0.85,3.46-0.65,6.43c0.14,2.14,1.17,2.82,2,3.36l1.75,1.2h-10.31l1.77-1.21
		c0.84-0.55,1.89-1.23,1.97-3.33c0.12-2.97-0.42-5.47-0.66-6.44l-10.56,0.86l2.32-3.6l-10.66-9.77l3.24-0.98L909.43,242.62z
		 M788.96,264.06l-10.56-0.86c-0.24,0.97-0.77,3.47-0.66,6.44c0.08,2.1,1.13,2.78,1.97,3.32l1.77,1.21h-10.31l1.75-1.2
		c0.82-0.54,1.85-1.21,2-3.35c0.2-2.97-0.38-5.48-0.65-6.43l-10.58,0.87l2.32-3.6l-10.66-9.77l3.23-0.98l-1.87-7.09l6.82,1.42
		l1.29-3.52l3.98,4.37l-1.16-11.28l4.19,3.35l4.5-8.49l4.5,8.49l4.19-3.35l-1.16,11.28l3.98-4.36l1.29,3.52l6.82-1.42l-1.87,7.09
		l3.24,0.98l-10.66,9.77L788.96,264.06z M846.76,274.95l-0.15,0.31h-33.53v-37.58h6.67v-5.55l5.42-0.02
		c0.1,0.01,7.04,0.29,10.54-1.09c6.6-2.6,11.79-2.81,15.33-0.74c0.19,0.11,0.37,0.22,0.55,0.34c0.14,0.1,0.31,0.17,0.44,0.28
		c0.03,0.02,0.06,0.04,0.09,0.07c0.49,0.39,0.94,0.83,1.35,1.33c0.53-0.66,1.16-1.18,1.84-1.65c0.19-0.13,0.39-0.25,0.59-0.37
		c3.54-2.08,8.74-1.86,15.33,0.74c3.5,1.38,10.44,1.09,10.51,1.09l5.44,0.02v5.55h6.67v37.58H860.3l-0.15-0.32
		c-0.02-0.05-2.36-4.82-6.68-4.82c-0.02,0-0.04,0-0.05,0C849.14,270.17,846.78,274.91,846.76,274.95z"/>
	<path class="st2" d="M794.07,249.71l1.87-7.09l-6.82,1.42l-1.29-3.52l-3.98,4.36l1.16-11.28l-4.19,3.35l-4.5-8.49l-4.5,8.49
		l-4.19-3.35l1.16,11.28l-3.98-4.37l-1.29,3.52l-6.82-1.42l1.87,7.09l-3.23,0.98l10.66,9.77l-2.32,3.6l10.58-0.87
		c0.26,0.95,0.85,3.46,0.65,6.43c-0.14,2.14-1.17,2.81-2,3.35l-1.75,1.2h10.31l-1.77-1.21c-0.84-0.55-1.89-1.23-1.97-3.32
		c-0.12-2.97,0.41-5.47,0.66-6.44l10.56,0.86l-2.32-3.6l10.66-9.77L794.07,249.71z"/>
	<path class="st2" d="M918.72,260.46l-2.32,3.6l10.56-0.86c0.25,0.97,0.78,3.47,0.66,6.44c-0.08,2.1-1.13,2.78-1.97,3.33l-1.77,1.21
		h10.31l-1.75-1.2c-0.83-0.54-1.85-1.21-2-3.36c-0.2-2.97,0.38-5.48,0.65-6.43l10.57,0.87l-2.32-3.6l10.66-9.77l-3.24-0.98
		l1.88-7.09l-6.82,1.42l-1.29-3.52l-3.98,4.37l1.15-11.28l-4.18,3.35l-4.49-8.49l-4.49,8.49l-4.19-3.35l1.15,11.28l-3.98-4.36
		l-1.29,3.52l-6.82-1.42l1.88,7.09l-3.24,0.98L918.72,260.46z"/>
	<path class="st3" d="M853.47,270.13c4.32,0,6.66,4.77,6.68,4.82l0.15,0.32h33.53v-37.58h-6.67v31.97l-0.55,0.01
		c-0.41,0-10.04,0.1-12.09-0.13c-1.29-0.15-3.25-0.88-5.52-1.73c-4.2-1.57-9.65-3.59-13.12-2.66c-0.21,0.06-0.41,0.12-0.6,0.2
		c-0.27,0.11-0.5,0.29-0.74,0.44c-0.1,0.07-0.19,0.13-0.28,0.19c-0.13,0.1-0.29,0.16-0.4,0.27l-0.4,0.41l-0.4-0.41
		c-0.41-0.42-0.92-0.71-1.48-0.93c-0.18-0.07-0.36-0.12-0.55-0.17c-3.47-0.94-8.92,1.08-13.12,2.65c-2.27,0.85-4.23,1.58-5.52,1.73
		c-1.1,0.13-4.39,0.16-7.26,0.16c-2.47,0-4.64-0.02-4.83-0.02l-0.55-0.01v-31.97h-6.67v37.58h33.53l0.15-0.31
		c0.02-0.05,2.38-4.79,6.66-4.82C853.43,270.13,853.45,270.13,853.47,270.13z"/>
	<path class="st2" d="M822.95,235.33l2.15-0.01c0.26,0.01,0.87,0.03,1.7,0.03c3.05,0,7.27-0.23,10.08-1.34
		c3.23-1.27,6.06-1.92,8.41-1.92c1.83,0,3.33,0.4,4.47,1.18c0.12,0.08,0.24,0.15,0.39,0.24c0.31,0.25,0.58,0.52,0.83,0.82l0.05,0.07
		v-4.11c-3.54-2.08-8.73-1.87-15.33,0.74c-3.5,1.38-10.44,1.09-10.54,1.09l-5.42,0.02v5.55h3.2V235.33z"/>
	<path class="st2" d="M820.3,269.66c0.19,0,2.35,0.02,4.83,0.02c2.87,0,6.16-0.03,7.26-0.16c1.29-0.15,3.25-0.88,5.52-1.73
		c4.2-1.57,9.65-3.59,13.12-2.65v-3.28c-0.63-0.11-1.3-0.17-2-0.17c-3.95,0-8.55,1.72-12.25,3.1c-1.9,0.71-3.86,1.44-4.76,1.54
		c-0.35,0.04-1.73,0.13-6.9,0.14c-0.77,0-1.52,0-2.18-0.01v-28.79h-3.2v31.97L820.3,269.66z"/>
	<path class="st3" d="M853.46,237.38l2.42-2.97v-4.11c-0.2,0.12-0.4,0.24-0.59,0.37c-0.67,0.47-1.3,1-1.84,1.65
		c-0.41-0.5-0.86-0.94-1.35-1.33c-0.03-0.02-0.06-0.05-0.09-0.07c-0.14-0.11-0.3-0.18-0.44-0.28c-0.18-0.12-0.36-0.23-0.55-0.34
		v4.11L853.46,237.38z"/>
	<path class="st2" d="M855.94,234.34c0.29-0.35,0.66-0.68,1.19-1.05c1.14-0.8,2.66-1.2,4.5-1.2c2.35,0,5.18,0.65,8.42,1.92
		c2.8,1.1,7.02,1.33,10.07,1.33c0.82,0,1.41-0.02,1.66-0.03l2.2,0.01v2.36h3.2v-5.55l-5.44-0.02c-0.07,0-7.02,0.29-10.51-1.09
		c-6.59-2.6-11.79-2.82-15.33-0.74v4.11L855.94,234.34z"/>
	<path class="st2" d="M883.96,266.48c-0.65,0-1.38,0-2.13,0c-5.2,0-6.59-0.09-6.94-0.14c-0.9-0.1-2.86-0.84-4.76-1.54
		c-3.7-1.38-8.31-3.1-12.25-3.1c-0.7,0-1.36,0.06-1.99,0.16v3.27c3.47-0.93,8.92,1.09,13.12,2.66c2.27,0.85,4.23,1.58,5.52,1.73
		c2.05,0.23,11.68,0.14,12.09,0.13l0.55-0.01v-31.97h-3.2V266.48z"/>
	<path class="st3" d="M854.08,262.37c-0.23,0.09-0.43,0.19-0.61,0.29c-0.23-0.12-0.48-0.22-0.73-0.32c-0.53-0.21-1.1-0.36-1.71-0.47
		v3.28c0.19,0.05,0.37,0.1,0.55,0.17c0.56,0.22,1.07,0.51,1.48,0.93l0.4,0.41l0.4-0.41c0.12-0.12,0.28-0.17,0.4-0.27
		c0.09-0.07,0.18-0.13,0.28-0.19c0.24-0.16,0.46-0.33,0.74-0.44c0.19-0.08,0.39-0.14,0.6-0.2v-3.27
		C855.24,261.98,854.64,262.15,854.08,262.37z"/>
	<path class="st2" d="M855.88,261.87c0.63-0.11,1.29-0.16,1.99-0.16c3.95,0,8.55,1.72,12.25,3.1c1.9,0.71,3.86,1.44,4.76,1.54
		c0.35,0.04,1.74,0.14,6.94,0.14c0.76,0,1.48,0,2.13,0v-28.79v-2.36l-2.2-0.01c-0.25,0.01-0.84,0.03-1.66,0.03
		c-3.05,0-7.27-0.23-10.07-1.33c-3.23-1.28-6.06-1.92-8.42-1.92c-1.84,0-3.35,0.4-4.5,1.2c-0.52,0.36-0.9,0.7-1.19,1.05l-0.06,0.07
		v3.28V261.87z"/>
	<path class="st3" d="M853.47,262.67c0.18-0.1,0.38-0.2,0.61-0.29c0.56-0.22,1.16-0.39,1.8-0.5v-24.18v-3.28l-2.42,2.97l-2.43-2.97
		v3.28v24.19c0.61,0.11,1.18,0.26,1.71,0.47C853,262.44,853.24,262.55,853.47,262.67z"/>
	<path class="st2" d="M851.03,234.4l-0.05-0.07c-0.24-0.3-0.51-0.57-0.83-0.82c-0.15-0.09-0.27-0.16-0.39-0.24
		c-1.14-0.78-2.65-1.18-4.47-1.18c-2.35,0-5.18,0.65-8.41,1.92c-2.81,1.1-7.03,1.34-10.08,1.34c-0.82,0-1.44-0.02-1.7-0.03
		l-2.15,0.01v2.36v28.79c0.66,0,1.41,0.01,2.18,0.01c5.17,0,6.54-0.1,6.9-0.14c0.9-0.1,2.87-0.84,4.76-1.54
		c3.7-1.38,8.29-3.1,12.25-3.1c0.7,0,1.37,0.06,2,0.17v-24.19V234.4z"/>
</g>
</svg>
